<svg width="69" height="21" viewBox="0 0 69 21" fill="none" xmlns="http://www.w3.org/2000/svg">
<mask id="mask0_125_759" style="mask-type:luminance" maskUnits="userSpaceOnUse" x="0" y="0" width="69" height="21">
<path d="M68.3823 0.277588H0.0565796V20.1384H68.3823V0.277588Z" fill="white"/>
</mask>
<g mask="url(#mask0_125_759)">
<path d="M25.0517 6.16275V11.703C25.0517 13.0367 25.0751 13.1511 26.3141 13.1511H28.3569V15.7258H25.6946C23.2615 15.7258 22.1143 14.9216 22.1143 12.002V6.16275H19.9115V3.58805H22.1143V0.277588H25.0517V3.58805H28.3569V6.16275H25.0517Z" fill="white"/>
<path d="M41.3942 9.65685C41.3942 13.1051 39.1221 15.9094 35.335 15.9094C31.5479 15.9094 29.2759 13.1051 29.2759 9.65685C29.2759 6.20861 31.5479 3.4043 35.335 3.4043C39.1221 3.4043 41.3942 6.20861 41.3942 9.65685ZM38.4568 9.65685C38.4568 7.68015 37.332 6.07084 35.336 6.07084C33.34 6.07084 32.2142 7.68015 32.2142 9.65685C32.2142 11.6335 33.3391 13.2429 35.336 13.2429C37.333 13.2429 38.4568 11.6335 38.4568 9.65685Z" fill="white"/>
<path d="M45.7991 4.04748C45.7991 4.53018 45.684 4.89757 45.4781 5.31187C45.3864 5.54149 45.2255 5.81801 45.4547 5.93233C45.684 6.04763 45.8225 5.74864 45.8674 5.65679C46.602 4.36993 47.8185 3.40356 49.7003 3.40356C52.8445 3.40356 54.979 6.16196 54.979 9.65612C54.979 13.1503 52.8445 15.9087 49.7003 15.9087C47.8643 15.9087 46.602 14.9658 45.8674 13.633C45.8215 13.5636 45.7298 13.334 45.523 13.4033C45.2703 13.4952 45.362 13.7248 45.4772 13.9554C45.684 14.3697 45.7981 14.7371 45.7981 15.1964V20.1386H42.8607V3.58824H45.7981V4.04846L45.7991 4.04748ZM52.0416 9.65612C52.0416 7.72534 51.0778 6.07011 49.0126 6.07011C47.0849 6.07011 45.7991 7.72534 45.7991 9.65612C45.7991 11.5869 47.0839 13.2421 49.0126 13.2421C51.0778 13.2421 52.0416 11.5869 52.0416 9.65612Z" fill="white"/>
<path d="M68.3812 9.65685C68.3812 13.1051 66.1091 15.9094 62.322 15.9094C58.5349 15.9094 56.2629 13.1051 56.2629 9.65685C56.2629 6.20861 58.5349 3.4043 62.322 3.4043C66.1091 3.4043 68.3812 6.20861 68.3812 9.65685ZM65.4438 9.65685C65.4438 7.68015 64.319 6.07084 62.322 6.07084C60.3251 6.07084 59.2012 7.68015 59.2012 9.65685C59.2012 11.6335 60.3261 13.2429 62.322 13.2429C64.318 13.2429 65.4438 11.6335 65.4438 9.65685Z" fill="white"/>
<path d="M5.95625 3.75317C5.95625 3.75317 5.95625 3.75516 5.95625 3.75615C5.95625 3.75914 5.95625 3.76112 5.95625 3.76311C5.95625 3.76112 5.95625 3.75814 5.95526 3.75317H5.95625Z" fill="white"/>
<path d="M15.0437 4.81043C14.9111 3.3516 14.0672 2.26212 12.7522 1.75695L11.4254 1.18729C10.9503 0.983075 10.4235 0.860936 9.85867 0.824782C8.87433 0.76127 7.88805 0.755407 6.92811 0.80524C5.86085 0.861913 4.8014 0.988938 3.77707 1.18436C1.82401 1.55762 0.485555 2.90995 0.284591 4.71174C0.00948511 7.19264 -0.0168548 9.59145 0.206547 12.045C0.325564 13.3563 1.11674 14.479 2.26984 14.9734L3.73902 15.6046C4.07266 15.7463 4.43264 15.8362 4.81116 15.8616C5.4599 15.9036 6.11254 15.9251 6.76226 15.9251C7.27833 15.9251 7.79244 15.9114 8.30168 15.885C9.45381 15.8245 10.6294 15.6935 11.7961 15.4942C13.4399 15.2138 14.7735 13.751 14.9667 12.0147C15.2408 9.54455 15.2662 7.25517 15.0437 4.81043ZM2.3352 5.40745C2.54007 3.5695 4.02974 2.64417 5.35551 2.3911C5.50477 2.36276 5.65501 2.3354 5.80524 2.31097C5.80524 2.6217 5.83158 2.93046 5.87646 3.23435C5.89695 3.37896 5.92524 3.52064 5.94572 3.66428C5.94963 3.68968 5.95255 3.71509 5.95645 3.74049C5.95645 3.74245 5.95645 3.75026 5.95938 3.7659C5.95938 3.77371 5.96133 3.78251 5.96133 3.79033C5.96719 3.84798 5.97206 3.90465 5.97694 3.9623C5.9906 4.17629 5.98962 4.39223 5.96719 4.60719C5.96523 4.62673 5.96328 4.64725 5.96036 4.6668C5.96036 4.6668 5.96036 4.67168 5.95841 4.67852V4.68341C5.95645 4.69122 5.95548 4.70002 5.9545 4.7049C5.9467 4.75669 5.93694 4.8075 5.92524 4.85929C5.90475 4.94723 5.88036 5.03517 5.8511 5.12115C5.84427 5.13972 5.83744 5.15829 5.83061 5.17587C5.82671 5.1876 5.82183 5.19835 5.81695 5.2091C5.79841 5.24916 5.77988 5.2902 5.75939 5.32928C5.73891 5.36836 5.71647 5.40647 5.69403 5.4436C5.6833 5.45924 5.67257 5.47487 5.66184 5.49344C5.65794 5.4993 5.65111 5.50809 5.64525 5.51591C5.5916 5.58431 5.53502 5.6488 5.47258 5.70742C5.46185 5.71817 5.45014 5.72892 5.44722 5.73087C5.44722 5.73087 5.4199 5.75335 5.41307 5.75921C5.376 5.78755 5.33795 5.81491 5.29796 5.84129C5.26381 5.86376 5.22869 5.88526 5.19162 5.9048C5.18382 5.90871 5.15162 5.92434 5.15162 5.92532C5.13601 5.93216 5.12041 5.939 5.10382 5.94584C5.01505 5.98492 4.92334 6.01521 4.83067 6.03866C4.80628 6.0455 4.78189 6.05137 4.7575 6.05723C4.75067 6.05821 4.72531 6.06309 4.71945 6.06505C4.6658 6.07384 4.61312 6.08166 4.56044 6.08752C4.50678 6.09338 4.4541 6.09729 4.40142 6.10022C4.33899 6.10315 4.27753 6.10413 4.21509 6.10413C3.8795 6.1012 3.54781 6.05137 3.21515 6.0201C2.90493 5.98981 2.59372 5.96343 2.27765 5.96245C2.29521 5.77778 2.31472 5.5931 2.3352 5.40745ZM2.23472 6.43537C2.85907 6.43537 3.46977 6.54774 4.09217 6.57412C4.19363 6.57803 4.29509 6.57803 4.39752 6.57412C4.74872 6.55556 5.09992 6.47446 5.42088 6.2976C6.16815 5.88428 6.44033 4.99413 6.43155 4.17824C6.42862 3.89585 6.39643 3.61347 6.34863 3.33792C6.28619 2.97639 6.25107 2.61193 6.25205 2.24062C6.68519 2.17613 7.12322 2.12435 7.56319 2.08428C7.54075 3.08387 7.73196 4.0688 7.95926 5.01758C8.01097 5.23157 8.06462 5.44458 8.11926 5.65661C8.14169 5.74553 8.16315 5.83542 8.18071 5.9263C8.18852 5.96636 8.19535 6.00642 8.20218 6.04746C8.2051 6.07091 8.20901 6.09631 8.21193 6.11977C8.21388 6.13149 8.21486 6.14322 8.21681 6.15396C8.21681 6.15396 8.21779 6.16276 8.21876 6.17937C8.23632 6.35427 8.2412 6.53211 8.23242 6.71092C8.22754 6.79495 8.22071 6.88094 8.20998 6.96301C8.20901 6.96301 8.1973 7.03434 8.19535 7.049C8.18754 7.09492 8.17779 7.13987 8.16706 7.1858C8.1495 7.26885 8.12706 7.35093 8.1017 7.43203C8.08804 7.47209 8.07438 7.51118 8.05975 7.55124C8.05487 7.56492 8.04999 7.5786 8.04511 7.59228C8.04414 7.59228 8.0217 7.64504 8.01975 7.6509C7.98756 7.72321 7.95146 7.79356 7.91341 7.86196C7.89293 7.89714 7.87244 7.93231 7.85098 7.96749C7.84025 7.98214 7.83049 7.99778 7.81976 8.01341C7.81488 8.02123 7.80903 8.03002 7.7983 8.04468C7.75147 8.11015 7.69977 8.1717 7.64514 8.23131C7.61977 8.25769 7.59441 8.28407 7.56807 8.30948C7.55246 8.32511 7.53587 8.33977 7.49002 8.37983C7.42954 8.42868 7.36613 8.47461 7.30077 8.51663C7.2637 8.54008 7.22467 8.56255 7.18565 8.58405C7.17492 8.58991 7.16419 8.59577 7.15443 8.60066C7.15346 8.60066 7.10175 8.62508 7.0959 8.62802C6.86079 8.73061 6.62373 8.7824 6.38179 8.7951C6.2657 8.80097 6.14766 8.79803 6.02767 8.78826C5.60916 8.75113 5.20528 8.62118 4.81213 8.48633C4.36143 8.33195 3.9156 8.159 3.44441 8.06813C3.18686 8.0183 2.93127 7.99973 2.6747 8.01341C2.49519 8.02221 2.31667 8.04761 2.13619 8.08865C2.1557 7.53951 2.18887 6.9894 2.23472 6.43635V6.43537ZM2.12156 8.56841C2.30594 8.52053 2.48934 8.4922 2.67177 8.48243C2.87956 8.47168 3.08638 8.48536 3.2932 8.52347C3.72634 8.60457 4.13998 8.75602 4.55263 8.90063C5.13699 9.10485 5.76037 9.29636 6.39058 9.26412C6.61203 9.25239 6.83543 9.21233 7.05688 9.13514C7.75537 8.89477 8.27144 8.30264 8.51533 7.5786C8.63337 7.22977 8.68508 6.85553 8.68312 6.494C8.68117 6.08459 8.59825 5.70058 8.5007 5.31267C8.23339 4.25641 7.98365 3.16595 8.00902 2.04715C8.14852 2.03738 8.28802 2.02957 8.42753 2.02175C8.70459 2.00709 8.98457 1.99732 9.26553 1.99244C9.1631 2.58945 9.17578 3.18549 9.28309 3.76981C9.38552 4.33067 9.566 4.86515 9.75623 5.39279C10.1269 6.42365 10.5845 7.50238 10.5133 8.65733C10.4508 9.67841 9.86549 10.6975 8.90457 11.0796C8.62362 11.191 8.3407 11.2457 8.05779 11.2604C7.24223 11.3034 6.42765 11.018 5.65696 10.8275C5.11358 10.6927 4.54971 10.5891 3.98096 10.6184C3.96145 10.6194 3.94291 10.6204 3.92438 10.6223C3.31466 10.6643 2.71469 10.8773 2.2035 11.2682C2.18985 11.2789 2.17619 11.2897 2.16253 11.3004C2.11278 10.3878 2.09912 9.48006 2.12156 8.56841ZM2.82493 14.1448C2.51275 13.7178 2.31081 13.196 2.25813 12.6225C2.23472 12.3674 2.21423 12.1134 2.19667 11.8593C2.61811 11.4626 3.13613 11.1988 3.68342 11.1197C3.77805 11.106 3.87365 11.0972 3.96828 11.0923C4.4502 11.0669 4.92725 11.146 5.39161 11.2555C6.26863 11.4607 7.15541 11.7763 8.06853 11.7284C8.30363 11.7157 8.54167 11.6795 8.78068 11.6102C9.85964 11.3004 10.6654 10.3057 10.8918 9.16445C11.123 7.98996 10.7659 6.84576 10.3864 5.79243C9.99817 4.71663 9.54649 3.61347 9.65282 2.40478C9.66551 2.26505 9.68599 2.1263 9.71331 1.98853C10.0313 1.98853 10.3503 1.99537 10.6693 2.00905C10.5279 3.43661 11.1522 4.701 11.7532 5.89112C12.0595 6.49791 12.3775 7.10567 12.5931 7.75838C12.799 8.38178 12.8839 8.99932 12.8282 9.67353C12.7209 10.9457 12.0527 12.2062 10.9581 12.8833C10.4235 13.2146 9.85476 13.3465 9.27626 13.3768C8.42655 13.4217 7.55539 13.2468 6.73592 13.1599C6.31058 13.1149 5.88426 13.0905 5.456 13.113C5.22869 13.1247 5.00041 13.1501 4.77311 13.1921C4.139 13.3084 3.50489 13.5302 2.99273 13.9826C2.93419 14.0334 2.87859 14.0881 2.82493 14.1448ZM14.3852 11.9492C14.2204 13.4315 13.0897 14.6793 11.6976 14.9167C10.5533 15.1112 9.40016 15.2401 8.27144 15.2998C7.14175 15.3584 5.98962 15.3506 4.8492 15.2763C4.17802 15.2323 3.57415 14.9412 3.1176 14.4868C3.48831 14.0774 3.98584 13.8566 4.51069 13.7227C4.81798 13.6435 5.13894 13.6005 5.46185 13.5839C5.7633 13.5673 6.06767 13.5751 6.36326 13.5986C7.32223 13.6748 8.31437 13.9005 9.29284 13.8487C9.78257 13.8233 10.2694 13.7276 10.7454 13.5097C12.0137 12.9303 12.916 11.6561 13.1912 10.251C13.3229 9.57289 13.3229 8.88109 13.1892 8.22056C13.0497 7.53169 12.7619 6.88973 12.4614 6.27415C11.88 5.08109 11.0947 3.84309 11.0888 2.43702C11.0888 2.30609 11.0937 2.15952 11.1083 2.03054C11.1688 2.0325 11.2293 2.03641 11.2898 2.04031C13.1258 2.15952 14.3111 3.21481 14.4613 4.8632C14.6789 7.26787 14.6545 9.51914 14.3852 11.9492Z" fill="#0067F6"/>
</g>
</svg>
