<svg width="20" height="15" viewBox="0 0 20 15" fill="none" xmlns="http://www.w3.org/2000/svg">
<g id="band">
<path id="Subtract" d="M4.30189 1.63743C2.15041 1.63743 0.521517 1.203 0.104404 1.08032C0.0521785 1.06496 0 1.10438 0 1.15882V2.47889C0 2.47889 1.79666 3.06791 4.30189 3.06791C5.77499 3.06791 7.9371 2.66299 10.1109 2.25586C12.3085 1.8443 14.518 1.43049 16.0398 1.43049C18.2788 1.43049 20 2.15493 20 2.15493L20 13.5609V0.777191C20 0.745217 19.9813 0.716629 19.9514 0.70488C19.6572 0.589228 18.0591 0 16.0398 0C14.518 0 12.3085 0.413809 10.1109 0.825374C7.9371 1.2325 5.77499 1.63743 4.30189 1.63743Z" fill="#050505"/>
<path id="Subtract_2" fill-rule="evenodd" clip-rule="evenodd" d="M4.30189 3.072C1.79666 3.072 0 2.48298 0 2.48298V3.91364C0 3.91364 1.79666 4.50266 4.30189 4.50266C5.77499 4.50266 7.9371 4.09773 10.1109 3.69061C12.3085 3.27904 14.518 2.86523 16.0398 2.86523C18.2788 2.86523 20 3.58968 20 3.58968V2.15901C20 2.15901 18.2788 1.43457 16.0398 1.43457C14.518 1.43457 12.3085 1.84838 10.1109 2.25994C7.9371 2.66707 5.77499 3.072 4.30189 3.072Z" fill="#FAFAFA"/>
<path id="Subtract_3" fill-rule="evenodd" clip-rule="evenodd" d="M4.30189 4.50681C1.79666 4.50681 0 3.91779 0 3.91779V5.3483C0 5.3483 1.79666 5.93732 4.30189 5.93732C5.77499 5.93732 7.9371 5.53239 10.1109 5.12527C12.3085 4.7137 14.518 4.29989 16.0398 4.29989C18.2788 4.29989 20 5.02434 20 5.02434V3.59383C20 3.59383 18.2788 2.86938 16.0398 2.86938C14.518 2.86938 12.3085 3.28319 10.1109 3.69476C7.9371 4.10188 5.77499 4.50681 4.30189 4.50681Z" fill="#050505"/>
<path id="Subtract_4" fill-rule="evenodd" clip-rule="evenodd" d="M4.30189 5.94138C1.79666 5.94138 0 5.35236 0 5.35236V6.78296C0 6.78296 1.79666 7.37198 4.30189 7.37198C5.77499 7.37198 7.9371 6.96705 10.1109 6.55993C12.3085 6.14836 14.518 5.73455 16.0398 5.73455C18.2788 5.73455 20 6.459 20 6.459V5.0284C20 5.0284 18.2788 4.30396 16.0398 4.30396C14.518 4.30396 12.3085 4.71776 10.1109 5.12933C7.9371 5.53645 5.77499 5.94138 4.30189 5.94138Z" fill="#FAFAFA"/>
<path id="Subtract_5" fill-rule="evenodd" clip-rule="evenodd" d="M4.30189 7.37595C1.79666 7.37595 0 6.78693 0 6.78693V8.21762C0 8.21762 1.79666 8.80664 4.30189 8.80664C5.77499 8.80664 7.9371 8.40171 10.1109 7.99459C12.3085 7.58302 14.518 7.16921 16.0398 7.16921C18.2788 7.16921 20 7.89366 20 7.89366V6.46297C20 6.46297 18.2788 5.73853 16.0398 5.73853C14.518 5.73853 12.3085 6.15233 10.1109 6.5639C7.9371 6.97102 5.77499 7.37595 4.30189 7.37595Z" fill="#050505"/>
<path id="Subtract_6" fill-rule="evenodd" clip-rule="evenodd" d="M4.30189 8.81101C1.79666 8.81101 0 8.22199 0 8.22199V9.65228C0 9.65228 1.79666 10.2413 4.30189 10.2413C5.77499 10.2413 7.9371 9.83637 10.1109 9.42925C12.3085 9.01768 14.518 8.60387 16.0398 8.60387C18.2788 8.60387 20 9.32831 20 9.32831L20 7.89803C20 7.89803 18.2788 7.17358 16.0398 7.17358C14.518 7.17358 12.3085 7.58739 10.1109 7.99896C7.93711 8.40608 5.77499 8.81101 4.30189 8.81101Z" fill="#FAFAFA"/>
<path id="Subtract_7" fill-rule="evenodd" clip-rule="evenodd" d="M4.30189 10.2453C1.79666 10.2453 0 9.65632 0 9.65632V11.0869C0 11.0869 1.79666 11.676 4.30189 11.676C5.77499 11.676 7.9371 11.271 10.1109 10.8639C12.3085 10.4523 14.518 10.0385 16.0398 10.0385C18.2788 10.0385 20 10.763 20 10.763V9.33235C20 9.33235 18.2788 8.60791 16.0398 8.60791C14.518 8.60791 12.3085 9.02172 10.1109 9.43328C7.9371 9.84041 5.77499 10.2453 4.30189 10.2453Z" fill="#050505"/>
<path id="Subtract_8" fill-rule="evenodd" clip-rule="evenodd" d="M4.30189 11.6802C1.79666 11.6802 0 11.0911 0 11.0911V12.5216C0 12.5216 1.79666 13.1106 4.30189 13.1106C5.77499 13.1106 7.9371 12.7057 10.1109 12.2986C12.3085 11.887 14.518 11.4732 16.0398 11.4732C18.2788 11.4732 20 12.1976 20 12.1976V10.7672C20 10.7672 18.2788 10.0427 16.0398 10.0427C14.518 10.0427 12.3085 10.4565 10.1109 10.8681C7.9371 11.2752 5.77499 11.6802 4.30189 11.6802Z" fill="#FAFAFA"/>
<path id="Subtract_9" d="M4.30189 13.115C1.79666 13.115 0 12.5259 0 12.5259V13.8985C0 13.933 0.021333 13.9634 0.0544191 13.9734C0.372121 14.07 2.05101 14.5455 4.30189 14.5455C5.77499 14.5455 7.9371 14.1405 10.1109 13.7334C12.3085 13.3218 14.518 12.908 16.0398 12.908C17.9441 12.908 19.4738 13.4321 19.8886 13.5887C19.9421 13.609 20 13.5692 20 13.512V12.202C20 12.202 18.2788 11.4775 16.0398 11.4775C14.518 11.4775 12.3085 11.8913 10.1109 12.3029C7.9371 12.71 5.77499 13.115 4.30189 13.115Z" fill="#050505"/>
</g>
</svg>
