<svg width="24" height="21" viewBox="0 0 24 21" fill="none" xmlns="http://www.w3.org/2000/svg">
<path fill-rule="evenodd" clip-rule="evenodd" d="M24 2.42684C23.1182 2.83847 22.1687 3.11683 21.1727 3.24121C22.1898 2.60156 22.9702 1.58729 23.3379 0.379057C22.3856 0.971329 21.3333 1.4022 20.2092 1.63319C19.3133 0.627806 18.0328 0 16.6156 0C13.8982 0 11.6936 2.31726 11.6936 5.17497C11.6936 5.58068 11.7359 5.97454 11.8204 6.3536C7.72812 6.13742 4.10072 4.07927 1.67072 0.944672C1.2467 1.71166 1.00439 2.60155 1.00439 3.54919C1.00439 5.34377 1.87357 6.9281 3.19493 7.85648C2.38916 7.83131 1.62845 7.59589 0.963547 7.21091V7.27457C0.963547 9.78284 2.66103 11.875 4.91495 12.3489C4.5022 12.4703 4.06691 12.531 3.61754 12.531C3.30058 12.531 2.99067 12.4999 2.69061 12.4392C3.31748 14.4944 5.1347 15.9913 7.29001 16.0313C5.6052 17.4202 3.48089 18.2479 1.17485 18.2479C0.777597 18.2479 0.384575 18.2242 0 18.1768C2.17926 19.6427 4.76844 20.5 7.54781 20.5C16.6057 20.5 21.5573 12.6154 21.5573 5.77613C21.5573 5.55106 21.5531 5.326 21.5446 5.10538C22.5068 4.3754 23.3421 3.46479 24 2.42684Z" fill="#616161"/>
</svg>
