<svg width="40" height="40" viewBox="0 0 40 40" fill="none" xmlns="http://www.w3.org/2000/svg">
<g id="Group 48095409">
<rect id="Rectangle 39367" y="0.00012207" width="39.8134" height="39.8134" rx="19.5086" fill="black"/>
<path id="Union" fill-rule="evenodd" clip-rule="evenodd" d="M18.3851 21.2464V25.5953C18.3851 26.8865 17.4036 27.9333 16.1927 27.9333C14.9819 27.9333 14.0004 26.8865 14.0004 25.5953V23.9461L18.3851 21.2464ZM19.3855 25.4364L22.9937 27.6579C23.9001 28.2159 25.059 27.8847 25.5823 26.9182C26.1056 25.9517 25.795 24.7158 24.8887 24.1578L19.3855 20.7695V25.4364ZM19.2561 19.458L19.2189 19.4351V19.4808L18.3851 19.9942V20.0146L14.0004 22.7142V22.6938L13.9814 22.7055V18.0345L23.1006 12.4199C23.7406 12.0259 24.5065 12.0748 25.086 12.4775C25.3345 12.6465 25.5496 12.88 25.7071 13.171C26.2309 14.1384 25.9201 15.3754 25.0129 15.9339L19.3855 19.3986V19.3783L19.2561 19.458ZM20.273 20.0841L25.5131 16.8579C26.8987 16.0047 27.3735 14.1152 26.5735 12.6376C25.7735 11.1599 24.0017 10.6536 22.616 11.5068L19.2858 13.5571C18.9325 12.0869 17.6816 11.0001 16.1927 11.0001C14.4294 11.0001 13 12.5245 13 14.4049V17.4272L12.9966 17.4293V24.5641L13 24.562V25.5953C13 27.4757 14.4294 29.0001 16.1927 29.0001C17.6336 29.0001 18.8516 27.9823 19.2488 26.5841L22.4935 28.5818C23.8784 29.4344 25.6491 28.9284 26.4487 27.4516C27.2482 25.9748 26.7737 24.0865 25.3889 23.2339L20.273 20.0841ZM18.3692 14.1215C18.238 12.9639 17.3136 12.067 16.1927 12.067C14.9819 12.067 14.0004 13.1137 14.0004 14.4049V16.8113L18.3692 14.1215Z" fill="white"/>
</g>
</svg>
