<svg width="40" height="40" viewBox="0 0 40 40" fill="none" xmlns="http://www.w3.org/2000/svg">
<g id="Group 48095409">
<rect id="Rectangle 39367" width="39.8134" height="39.8134" rx="19.5086" fill="#4945FF"/>
<g id="Group 1311">
<g id="Group 10">
<g id="logo">
<g id="Logo">
<g id="Monogram">
<path id="Combined Shape Copy" fill-rule="evenodd" clip-rule="evenodd" d="M26.2013 13.4938H14.5236V19.3029H20.3908C20.4598 19.3029 20.5157 19.3589 20.5157 19.4278V25.2949H14.5236V25.2962H26.3262V13.6187C26.3262 13.5497 26.2703 13.4938 26.2013 13.4938Z" fill="white"/>
<path id="Rectangle Copy 6" opacity="0.404989" fill-rule="evenodd" clip-rule="evenodd" d="M14.5255 13.4938V19.3042H8.86573C8.81009 19.3042 8.78223 19.2369 8.82157 19.1976L14.5255 13.4938Z" fill="white"/>
<path id="Rectangle Copy 7" opacity="0.404989" fill-rule="evenodd" clip-rule="evenodd" d="M20.6204 31C20.5811 31.0393 20.5138 31.0114 20.5138 30.9558V25.2962H26.3243L20.6204 31Z" fill="white"/>
<path id="Rectangle Copy 8" opacity="0.404989" d="M14.5236 19.3042H20.4532C20.4877 19.3042 20.5157 19.3322 20.5157 19.3666V25.2962H14.6485C14.5795 25.2962 14.5236 25.2403 14.5236 25.1713V19.3042Z" fill="white"/>
</g>
</g>
</g>
</g>
</g>
</g>
</svg>
