<svg width="40" height="40" viewBox="0 0 40 40" fill="none" xmlns="http://www.w3.org/2000/svg">
<g id="Group 48095409">
<rect id="Rectangle 39367" y="0.00012207" width="39.8134" height="39.8134" rx="19.5086" fill="#4945FF"/>
<g id="Group 1311">
<g id="Group 10">
<g id="logo">
<g id="Logo">
<g id="Monogram">
<path id="Combined Shape Copy" fill-rule="evenodd" clip-rule="evenodd" d="M26.2014 13.4939H14.5236V19.3031H20.3909C20.4598 19.3031 20.5157 19.359 20.5157 19.428V25.295H14.5236V25.2963H26.3263V13.6188C26.3263 13.5498 26.2704 13.4939 26.2014 13.4939Z" fill="white"/>
<path id="Rectangle Copy 6" opacity="0.404989" fill-rule="evenodd" clip-rule="evenodd" d="M14.5256 13.4939V19.3043H8.86579C8.81016 19.3043 8.78229 19.237 8.82163 19.1977L14.5256 13.4939Z" fill="white"/>
<path id="Rectangle Copy 7" opacity="0.404989" fill-rule="evenodd" clip-rule="evenodd" d="M20.6205 31.0001C20.5811 31.0394 20.5139 31.0116 20.5139 30.9559V25.2963H26.3244L20.6205 31.0001Z" fill="white"/>
<path id="Rectangle Copy 8" opacity="0.404989" d="M14.5236 19.3043H20.4533C20.4878 19.3043 20.5157 19.3323 20.5157 19.3668V25.2963H14.6485C14.5795 25.2963 14.5236 25.2404 14.5236 25.1714V19.3043Z" fill="white"/>
</g>
</g>
</g>
</g>
</g>
</g>
</svg>
