<svg width="27" height="34" viewBox="0 0 27 34" fill="none" xmlns="http://www.w3.org/2000/svg">
<path id="Union" fill-rule="evenodd" clip-rule="evenodd" d="M13.7377 17.1628L23.6433 11.064C26.2607 9.45254 27.1574 5.88352 25.6463 3.09238C24.1352 0.301241 20.7884 -0.655073 18.171 0.956392L11.874 4.83336C11.2078 2.05448 8.84429 0 6.03083 0C2.70009 0 0 2.87939 0 6.43128V27.5687C0 31.1206 2.70009 34 6.03083 34C8.7512 34 11.0509 32.0792 11.8024 29.44L17.9236 33.2088C20.5394 34.8193 23.8842 33.8636 25.3945 31.0741C26.9047 28.2846 26.0085 24.7177 23.3927 23.1072L13.7377 17.1628ZM10.172 19.3581V27.5687C10.172 30.0077 8.31793 31.9849 6.03083 31.9849C3.74372 31.9849 1.88966 30.0077 1.88966 27.5687V24.4574L10.172 19.3581ZM12.0617 27.2728L18.8685 31.4637C20.5805 32.5177 22.7696 31.8922 23.758 30.0665C24.7464 28.2409 24.1598 25.9064 22.4478 24.8524L12.0617 18.4577V27.2728ZM12.0617 15.8678L10.172 17.0312L1.89066 22.1299V22.0935L1.86328 22.1103L1.86328 13.2872L19.0885 2.68192C20.3182 1.9248 21.7939 2.03348 22.8948 2.8306C23.3395 3.14622 23.7246 3.57317 24.0098 4.09995C24.9991 5.92727 24.412 8.26385 22.6985 9.31885L12.0617 15.8678ZM10.1423 5.89958C9.89605 3.71131 8.14919 2.01513 6.03083 2.01513C3.74373 2.01513 1.88966 3.99231 1.88966 6.43128V10.9806L10.1423 5.89958Z" fill="white"/>
</svg>
