<svg width="162" height="38" viewBox="0 0 162 38" fill="none" xmlns="http://www.w3.org/2000/svg">
<g id="Group 1">
<path id="Vector" d="M12.9223 6.16062L25.0828 18.5087L12.9223 30.8567L19.0025 37.0173L37.2433 18.5087L19.0025 0L12.9223 6.16062ZM12.9223 18.5087L6.84198 24.6693L0.761719 18.5087L6.84198 12.348L12.9223 18.5087Z" fill="white"/>
<path id="Cubyn" d="M62.0205 31.4728C53.5295 31.4728 49.6992 26.0354 49.6992 18.8302V14.8124C49.6992 7.60711 53.5295 2.1697 62.0205 2.1697C69.1454 2.1697 73.5381 6.99106 73.806 12.7499H68.5829C68.2079 9.56245 66.199 6.80356 62.0205 6.80356C57.3062 6.80356 55.2973 10.0178 55.2973 14.5445V19.1248C55.2973 23.6247 57.3062 26.8658 62.0205 26.8658C66.199 26.8658 68.2079 24.0801 68.5829 20.9194H73.806C73.5114 26.6515 69.1454 31.4728 62.0205 31.4728ZM95.8235 9.99101V30.9371H90.6004V28.4461C89.6361 30.2139 87.2254 31.4193 84.5201 31.4193C79.8059 31.4193 77.181 28.1515 77.181 23.4104V10.0178H82.6452V22.6337C82.6452 25.2854 83.9041 26.8122 86.3415 26.8122C88.8861 26.8122 90.3325 25.2051 90.3325 22.5801V9.99101H95.8235ZM111.493 31.3925C108.466 31.3925 106.27 30.1068 105.306 28.4193V30.9103H100.082V1.52686H105.547V12.3213C106.672 10.741 108.761 9.50887 111.547 9.50887C117.171 9.50887 120.332 13.6874 120.332 18.723V22.1783C120.305 27.1336 117.145 31.3925 111.493 31.3925ZM110.18 26.9729C113.368 26.9729 114.841 24.7229 114.841 21.9373V18.9641C114.841 16.0177 113.234 13.9285 110.127 13.9285C107.636 13.9285 105.547 15.6963 105.547 18.8837V21.9373C105.547 24.8836 107.395 26.9729 110.18 26.9729ZM131.555 37.9281H126.171L128.261 30.83L121.002 9.96423H126.466L130.966 24.9908L135.225 9.96423H140.662L131.555 37.9281ZM142.671 30.9103V9.96423H147.894V12.4553C148.939 10.5267 151.082 9.48209 154.055 9.48209C158.608 9.48209 161.474 12.4553 161.474 17.4909V30.8835H156.01V18.3748C156.01 15.9641 154.832 14.2231 152.18 14.2231C149.716 14.2231 148.162 15.6695 148.162 18.482V30.8835H142.671V30.9103Z" fill="white"/>
</g>
</svg>
