<svg width="180" height="42" viewBox="0 0 180 42" fill="none" xmlns="http://www.w3.org/2000/svg">
<path d="M54.5664 20.831C54.5664 13.2836 60.2027 9.13743 66.1628 9.23461C70.7301 9.23461 75.589 11.6964 76.6255 17.3003H71.9286C70.9245 14.7413 68.8838 13.6076 66.1628 13.6076C62.1462 13.6076 59.4576 16.5229 59.4576 20.831C59.4576 24.7181 62.0814 27.9573 66.1304 27.9573C68.9486 27.9573 71.2484 26.6292 72.0258 23.8759H76.6903C75.7185 29.8685 70.8921 32.3627 66.1628 32.3627C60.2027 32.3627 54.5664 28.346 54.5664 20.831Z" fill="white"/>
<path d="M84.4885 23.1957V32.1683H79.9536V8.4572H84.4885V18.6284C85.7518 16.7172 87.6305 16.1342 89.6064 16.2313C93.1048 16.3933 94.692 18.3368 95.1779 21.2845C95.2751 22.0295 95.3075 22.7422 95.3075 23.5196V27.6982C95.3075 29.091 95.5342 29.415 97.0567 29.3178V32.0387C93.2992 32.8162 90.7726 32.0387 90.7726 27.9249V24.9448C90.7726 23.9083 90.7726 23.0337 90.6754 22.2887C90.4162 20.6367 89.736 19.7621 87.8249 19.7621C86.0757 19.7621 84.4885 20.993 84.4885 23.1957Z" fill="white"/>
<path d="M114.653 17.6242V27.1151C114.653 28.4432 114.588 29.1558 116.143 29.0587V31.974C114.038 32.4274 110.993 32.5894 110.993 29.3826C110.118 31.3261 108.11 32.3951 106.037 32.3951C101.21 32.2979 98.9754 28.5728 98.9754 24.135C99.1374 18.8551 102.733 16.0694 108.013 16.1665C110.313 16.1989 112.58 16.7496 114.653 17.6242ZM110.248 24.297V20.248C109.373 19.8917 108.434 19.7945 107.657 19.7945C105.195 19.7945 103.607 21.155 103.51 24.135C103.51 26.5968 104.676 28.4108 107.009 28.3784C109.179 28.3784 110.151 26.6616 110.248 24.297Z" fill="white"/>
<path d="M118.98 12.0203C118.98 8.55437 124.293 8.55437 124.293 12.0203C124.293 15.5187 118.98 15.5187 118.98 12.0203ZM123.904 16.7172V32.1359H119.369V16.7172H123.904Z" fill="white"/>
<path d="M127.029 19.1142V16.4581C129.328 16.037 132.989 15.8102 132.989 18.8227C133.993 16.9764 135.839 16.1665 137.912 16.1665C142.318 16.1665 144.164 19.179 144.067 23.0661V27.3095C144.067 28.7671 144.132 29.4798 145.719 29.3826V32.0387C142.642 32.8162 139.564 32.4274 139.564 28.5404V23.0661C139.597 20.8958 138.204 19.7621 136.552 19.7621C134.867 19.6649 133.28 20.993 133.28 23.1633V32.1359H128.745V21.3493C128.745 19.6325 128.778 19.0171 127.029 19.1142Z" fill="white"/>
<path d="M148.499 8.4248H152.969V26.2081C152.969 28.6052 153.909 29.091 156.079 28.7347L156.241 32.1359C151.415 33.0105 148.499 31.812 148.499 26.2081V8.4248Z" fill="white"/>
<path d="M158.269 12.0203C158.269 8.55437 163.581 8.55437 163.581 12.0203C163.581 15.5187 158.269 15.5187 158.269 12.0203ZM163.192 16.7172V32.1359H158.657V16.7172H163.192Z" fill="white"/>
<path d="M173.411 11.6964V16.5553H178.496V19.9564H173.411V26.0138C173.411 29.253 176.099 29.415 178.691 28.4756L179.112 31.9092C173.735 33.3992 168.973 32.5246 168.973 26.111V19.9564L166.025 19.6649V16.5553H169.297L169.783 11.6964H173.411Z" fill="white"/>
<path d="M13.4449 19.2179C13.1547 18.2133 12.6137 17.2657 11.822 16.4739C9.32217 13.9741 5.26919 13.9741 2.76938 16.4739C0.26958 18.9737 0.26958 23.0267 2.76938 25.5265C3.56116 26.3183 4.50874 26.8593 5.51344 27.1495C6.03596 27.316 6.63721 27.4454 7.29302 27.5866C9.46252 28.0538 12.2292 28.6495 14.7188 31.1391C14.7188 31.1391 15.0809 30.3244 15.8504 29.5549C16.6198 28.7854 17.4346 28.4233 17.4346 28.4233C14.945 25.9338 14.3493 23.1671 13.8821 20.9976C13.7409 20.3417 13.6114 19.7405 13.4449 19.2179Z" fill="url(#paint0_linear_1_639)"/>
<path d="M30.0242 22.7825C30.3144 23.7872 30.8554 24.7347 31.6471 25.5265C34.1469 28.0263 38.1999 28.0263 40.6997 25.5265C43.1995 23.0267 43.1995 18.9737 40.6997 16.4739C39.908 15.6821 38.9604 15.1412 37.9557 14.8509C37.4331 14.6845 36.8319 14.555 36.1761 14.4138C34.0066 13.9466 31.2399 13.3509 28.7503 10.8613C28.7503 10.8613 28.3882 11.676 27.6187 12.4455C26.8493 13.215 26.0345 13.5771 26.0345 13.5771C28.5241 16.0667 29.1198 18.8334 29.587 21.0029C29.7282 21.6587 29.8577 22.2599 30.0242 22.7825Z" fill="url(#paint1_linear_1_639)"/>
<path d="M15.5853 4.77904C15.8755 3.77435 16.4165 2.82677 17.2083 2.03501C19.7081 -0.464795 23.7611 -0.464795 26.2609 2.03501C28.7607 4.53481 28.7607 8.5878 26.2609 11.0876C25.4691 11.8794 24.5215 12.4204 23.5168 12.7106C22.9943 12.8771 22.3931 13.0065 21.7372 13.1477C19.5677 13.6149 16.801 14.2106 14.3115 16.7002C14.3115 16.7002 13.9494 15.8855 13.1799 15.116C12.4104 14.3465 11.5957 13.9844 11.5957 13.9844C14.0853 11.4949 14.681 8.72815 15.1482 6.55865C15.2894 5.90282 15.4188 5.30156 15.5853 4.77904Z" fill="url(#paint2_linear_1_639)"/>
<path d="M27.8838 37.2214C27.5936 38.2261 27.0526 39.1736 26.2608 39.9654C23.761 42.4652 19.708 42.4652 17.2082 39.9654C14.7084 37.4656 14.7084 33.4126 17.2082 30.9128C18 30.121 18.9476 29.5801 19.9523 29.2898C20.4748 29.1234 21.076 28.9939 21.7319 28.8527C23.9014 28.3855 26.6681 27.7898 29.1576 25.3002C29.1576 25.3002 29.5197 26.1149 30.2892 26.8844C31.0587 27.6539 31.8734 28.016 31.8734 28.016C29.3839 30.5056 28.7881 33.2723 28.3209 35.4418C28.1797 36.0976 28.0503 36.6989 27.8838 37.2214Z" fill="url(#paint3_linear_1_639)"/>
<path d="M13.3697 19.2397L13.3696 19.2397L13.3703 19.2417C13.5354 19.7599 13.6641 20.3572 13.8055 21.014L13.8062 21.0174C14.2686 23.1645 14.8608 25.915 17.3017 28.4006C17.2887 28.4072 17.2744 28.4145 17.2591 28.4224C17.1691 28.4692 17.0415 28.5395 16.8896 28.6341C16.5861 28.823 16.185 29.1095 15.795 29.4995C15.405 29.8895 15.1185 30.2906 14.9295 30.5942C14.835 30.746 14.7647 30.8737 14.7179 30.9636C14.7099 30.979 14.7027 30.9932 14.696 31.0063C12.2105 28.5654 9.45994 27.9731 7.31292 27.5108L7.30952 27.51C6.65269 27.3686 6.05543 27.2399 5.53724 27.0748L5.53519 27.0742C4.54288 26.7876 3.60696 26.2533 2.82478 25.4711C0.355575 23.0019 0.355575 18.9985 2.82478 16.5293C5.29399 14.0601 9.29737 14.0601 11.7666 16.5293C12.5487 17.3115 13.083 18.2474 13.3697 19.2397ZM30.0994 22.7607L30.0995 22.7607L30.0988 22.7587C29.9337 22.2405 29.805 21.6432 29.6636 20.9864L29.6629 20.983C29.2005 18.8359 28.6083 16.0854 26.1674 13.5998C26.1805 13.5932 26.1947 13.586 26.21 13.578C26.3 13.5312 26.4276 13.4609 26.5795 13.3664C26.883 13.1774 27.2841 12.8909 27.6741 12.5009C28.0641 12.1109 28.3506 11.7098 28.5396 11.4063C28.6341 11.2544 28.7044 11.1268 28.7512 11.0368C28.7592 11.0215 28.7665 11.0072 28.7731 10.9942C31.2586 13.4351 34.0092 14.0273 36.1562 14.4896L36.1596 14.4904C36.8164 14.6318 37.4137 14.7605 37.9319 14.9256L37.9319 14.9256L37.9339 14.9262C38.9262 15.2128 39.8621 15.7471 40.6443 16.5293C43.1135 18.9985 43.1135 23.0019 40.6443 25.4711C38.1751 27.9403 34.1717 27.9403 31.7025 25.4711C30.9204 24.6889 30.3861 23.753 30.0994 22.7607ZM15.66 4.80282L15.66 4.80283L15.6606 4.80078C15.9472 3.80849 16.4815 2.87258 17.2637 2.09041C19.7329 -0.3788 23.7363 -0.3788 26.2055 2.09041C28.6747 4.55962 28.6747 8.56299 26.2055 11.0322C25.4233 11.8144 24.4874 12.3487 23.4951 12.6353L23.4951 12.6353L23.493 12.6359C22.9748 12.801 22.3776 12.9297 21.7208 13.0711L21.7174 13.0719C19.5703 13.5342 16.8198 14.1265 14.3342 16.5674C14.3276 16.5543 14.3203 16.5401 14.3124 16.5247C14.2656 16.4348 14.1953 16.3071 14.1007 16.1552C13.9117 15.8517 13.6253 15.4506 13.2353 15.0606C12.8453 14.6706 12.4442 14.3841 12.1406 14.1952C11.9888 14.1006 11.8611 14.0303 11.7712 13.9835C11.7558 13.9756 11.7416 13.9683 11.7285 13.9617C14.1694 11.4761 14.7617 8.72557 15.224 6.57855L15.2248 6.57514C15.3662 5.9183 15.4949 5.32103 15.66 4.80282ZM27.8091 37.1976L27.8085 37.1996C27.5219 38.1919 26.9876 39.1278 26.2054 39.91C23.7362 42.3792 19.7328 42.3792 17.2636 39.91C14.7944 37.4408 14.7944 33.4374 17.2636 30.9682C18.0458 30.186 18.9817 29.6517 19.974 29.3651L19.974 29.3651L19.9761 29.3645C20.4943 29.1994 21.0915 29.0707 21.7484 28.9293L21.7518 28.9285C23.8988 28.4662 26.6494 27.874 29.1349 25.4331C29.1415 25.4461 29.1488 25.4604 29.1567 25.4757C29.2035 25.5657 29.2738 25.6933 29.3684 25.8452C29.5574 26.1487 29.8438 26.5498 30.2338 26.9398C30.6238 27.3298 31.0249 27.6163 31.3285 27.8053C31.4803 27.8998 31.608 27.9701 31.698 28.0169C31.7133 28.0249 31.7275 28.0321 31.7406 28.0388C29.2997 30.5243 28.7074 33.2749 28.2451 35.4219L28.2444 35.4253C28.1029 36.0821 27.9742 36.6794 27.8091 37.1976Z" stroke="black" stroke-opacity="0.1" stroke-width="0.156692" stroke-linejoin="round"/>
<defs>
<linearGradient id="paint0_linear_1_639" x1="19.5803" y1="43.4676" x2="18.5786" y2="-4.2323" gradientUnits="userSpaceOnUse">
<stop stop-color="#FF004F"/>
<stop offset="1" stop-color="#FF0581"/>
</linearGradient>
<linearGradient id="paint1_linear_1_639" x1="19.5803" y1="43.4676" x2="18.5786" y2="-4.2323" gradientUnits="userSpaceOnUse">
<stop stop-color="#FF004F"/>
<stop offset="1" stop-color="#FF0581"/>
</linearGradient>
<linearGradient id="paint2_linear_1_639" x1="19.5803" y1="43.4676" x2="18.5786" y2="-4.2323" gradientUnits="userSpaceOnUse">
<stop stop-color="#FF004F"/>
<stop offset="1" stop-color="#FF0581"/>
</linearGradient>
<linearGradient id="paint3_linear_1_639" x1="19.5803" y1="43.4676" x2="18.5786" y2="-4.2323" gradientUnits="userSpaceOnUse">
<stop stop-color="#FF004F"/>
<stop offset="1" stop-color="#FF0581"/>
</linearGradient>
</defs>
</svg>
