<svg width="155" height="28" viewBox="0 0 155 28" fill="none" xmlns="http://www.w3.org/2000/svg">
<g clip-path="url(#clip0_1_587)">
<path d="M8.94103 14.5152L6.69519 27.5398H0L4.78622 0H11.4796L9.27055 12.6898L20.9452 0H28.6198L16.1259 13.5202L24.3306 27.5473H16.1664L8.94103 14.5152Z" fill="white"/>
<path d="M47.9458 22.2509C47.2182 23.538 46.239 24.6601 45.0685 25.5482C43.887 26.425 42.5491 27.0602 41.1291 27.4185C39.5334 27.8189 37.8944 28.0137 36.2508 27.9982C34.6674 28.0222 33.0882 27.8272 31.5566 27.4185C30.1944 27.0307 29.0899 26.4073 28.2431 25.5482C27.3713 24.6394 26.7756 23.4946 26.5274 22.2509C26.228 20.9105 26.2415 19.3002 26.5679 17.42C26.8944 15.5397 27.4386 13.9288 28.2008 12.5872C28.9146 11.3016 29.8891 10.1847 31.0596 9.31048C32.2475 8.44469 33.5833 7.81051 34.999 7.4402C36.5926 7.02595 38.2325 6.82413 39.8773 6.83985C41.462 6.81553 43.0422 7.01763 44.5715 7.4402C45.9313 7.84294 47.0401 8.46636 47.8979 9.31048C48.7826 10.2044 49.3867 11.3446 49.6338 12.5872C49.9321 13.9275 49.9185 15.5385 49.5933 17.42C49.2681 19.3015 48.7189 20.9118 47.9458 22.2509ZM42.9055 17.42C43.2037 15.5946 43.0405 14.223 42.4158 13.3053C41.7912 12.3877 40.6615 11.9326 39.0268 11.94C35.7894 11.94 33.8706 13.7654 33.2705 17.4162C32.6164 21.0645 33.8957 22.8893 37.1086 22.8905C40.3216 22.8918 42.2538 21.0682 42.9055 17.42Z" fill="white"/>
<path d="M54.7419 27.1863C54.0444 27.0144 53.4197 26.6193 52.96 26.0593C52.5003 25.4993 52.2299 24.804 52.1886 24.0761C52.1047 23.0698 52.1667 22.0566 52.3727 21.0687L56.0544 0H62.6612L59.0274 20.7301C58.9187 21.3922 58.9795 21.8635 59.2114 22.1403C59.4434 22.4171 59.8852 22.5537 60.5369 22.5537H62.0887L61.2309 27.5323H57.6394C56.6621 27.5597 55.6862 27.4432 54.7419 27.1863Z" fill="white"/>
<path d="M66.9868 27.1863C66.2879 27.0162 65.6615 26.6218 65.2006 26.0616C64.7397 25.5013 64.4688 24.8051 64.428 24.0761C64.3422 23.0699 64.4043 22.0563 64.6121 21.0687L68.2938 0H74.9061L71.2741 20.7301C71.1637 21.3922 71.2263 21.8635 71.4582 22.1403C71.6902 22.4171 72.132 22.5537 72.7855 22.5537H74.3373L73.4795 27.5323H69.8843C68.9071 27.5595 67.9312 27.4429 66.9868 27.1863Z" fill="white"/>
<path d="M77.7852 24.9476C76.3849 23.2182 75.9701 20.7089 76.5408 17.4198C77.0857 14.1281 78.3645 11.6188 80.3771 9.89188C82.3898 8.16499 85.0161 7.30093 88.256 7.29968H96.7479L95.8495 12.2765H88.3388C86.8662 12.2765 85.7978 12.5115 85.1339 12.9816C84.4648 13.4554 83.9695 14.1415 83.7257 14.9323H95.2365L94.3805 19.8268H82.8678C82.8285 20.1879 82.8719 20.5534 82.9945 20.8947C83.1171 21.236 83.3157 21.5438 83.5747 21.7943C84.1073 22.3068 85.1075 22.5624 86.5753 22.5611H94.2517L93.3957 27.5398H84.7436C81.5099 27.5398 79.1904 26.6757 77.7852 24.9476Z" fill="white"/>
<path d="M113.486 15.7609C113.675 14.6001 113.559 13.7566 113.138 13.2304C112.717 12.7043 111.935 12.4412 110.791 12.4412H106.627L104.009 27.5399H97.4023L100.913 7.2998H113.247C116.159 7.2998 118.159 7.96998 119.248 9.31035C120.336 10.6507 120.622 12.8009 120.106 15.7609L118.064 27.5437H111.445L113.486 15.7609Z" fill="white"/>
<path d="M144.368 22.2509C143.639 23.5376 142.66 24.6597 141.489 25.5482C140.308 26.425 138.97 27.0602 137.55 27.4185C135.954 27.819 134.315 28.0138 132.671 27.9982C131.088 28.0222 129.509 27.8272 127.977 27.4185C126.616 27.0307 125.512 26.4073 124.664 25.5482C123.792 24.6394 123.196 23.4946 122.948 22.2509C122.65 20.9105 122.664 19.3002 122.99 17.42C123.317 15.5397 123.862 13.9288 124.627 12.5872C125.34 11.3017 126.314 10.1848 127.484 9.31048C128.672 8.44469 130.008 7.81051 131.423 7.4402C133.017 7.02611 134.657 6.8243 136.302 6.83985C137.886 6.81553 139.466 7.01763 140.996 7.4402C142.24 7.77627 143.383 8.41865 144.324 9.31048C145.208 10.2045 145.812 11.3448 146.058 12.5872C146.358 13.9275 146.344 15.5385 146.018 17.42C145.691 19.3015 145.141 20.9118 144.368 22.2509ZM139.326 17.42C139.627 15.5946 139.464 14.223 138.836 13.3053C138.209 12.3877 137.08 11.9326 135.447 11.94C132.21 11.94 130.291 13.7654 129.691 17.4162C129.039 21.0645 130.319 22.8893 133.529 22.8905C136.74 22.8918 138.672 21.0682 139.326 17.42Z" fill="white"/>
<path d="M151.065 27.5398C153.239 27.5398 155.001 25.7496 155.001 23.5412C155.001 21.3328 153.239 19.5425 151.065 19.5425C148.892 19.5425 147.129 21.3328 147.129 23.5412C147.129 25.7496 148.892 27.5398 151.065 27.5398Z" fill="#2D9FF7"/>
</g>
<defs>
<clipPath id="clip0_1_587">
<rect width="155" height="28" fill="white"/>
</clipPath>
</defs>
</svg>
