<svg width="136" height="39" viewBox="0 0 136 39" fill="none" xmlns="http://www.w3.org/2000/svg">
<mask id="mask0_1_647" style="mask-type:luminance" maskUnits="userSpaceOnUse" x="0" y="0" width="136" height="39">
<path d="M135.278 0H0.894531V39H135.278V0Z" fill="white"/>
</mask>
<g mask="url(#mask0_1_647)">
<path d="M50.0551 11.5565V22.4356C50.0551 25.0547 50.1011 25.2792 52.5379 25.2792H56.5557V30.335H51.3195C46.5342 30.335 44.2778 28.7559 44.2778 23.0228V11.5565H39.9453V6.50064H44.2778V0H50.0551V6.50064H56.5557V11.5565H50.0551Z" fill="white"/>
<path d="M82.1977 18.4176C82.1977 25.1887 77.729 30.6955 70.2805 30.6955C62.832 30.6955 58.3633 25.1887 58.3633 18.4176C58.3633 11.6464 62.832 6.13965 70.2805 6.13965C77.729 6.13965 82.1977 11.6464 82.1977 18.4176ZM76.4204 18.4176C76.4204 14.536 74.2081 11.3758 70.2824 11.3758C66.3567 11.3758 64.1425 14.536 64.1425 18.4176C64.1425 22.2991 66.3548 25.4593 70.2824 25.4593C74.21 25.4593 76.4204 22.2991 76.4204 18.4176Z" fill="white"/>
<path d="M90.8612 7.40262C90.8612 8.35047 90.6348 9.07191 90.23 9.88545C90.0496 10.3364 89.733 10.8794 90.1839 11.1038C90.6348 11.3303 90.9073 10.7431 90.9955 10.5628C92.4403 8.0358 94.833 6.13818 98.5342 6.13818C104.718 6.13818 108.916 11.5547 108.916 18.4161C108.916 25.2775 104.718 30.694 98.5342 30.694C94.9232 30.694 92.4403 28.8425 90.9955 26.2253C90.9054 26.0891 90.725 25.6382 90.3182 25.7744C89.8213 25.9548 90.0016 26.4057 90.2281 26.8585C90.6348 27.672 90.8593 28.3935 90.8593 29.2953V39.0002H85.082V6.50082H90.8593V7.40454L90.8612 7.40262ZM103.139 18.4161C103.139 14.6247 101.243 11.3744 97.1815 11.3744C93.3901 11.3744 90.8612 14.6247 90.8612 18.4161C90.8612 22.2075 93.3882 25.4578 97.1815 25.4578C101.243 25.4578 103.139 22.2075 103.139 18.4161Z" fill="white"/>
<path d="M135.276 18.4176C135.276 25.1887 130.807 30.6955 123.359 30.6955C115.91 30.6955 111.441 25.1887 111.441 18.4176C111.441 11.6464 115.91 6.13965 123.359 6.13965C130.807 6.13965 135.276 11.6464 135.276 18.4176ZM129.499 18.4176C129.499 14.536 127.286 11.3758 123.359 11.3758C119.431 11.3758 117.221 14.536 117.221 18.4176C117.221 22.2991 119.433 25.4593 123.359 25.4593C127.284 25.4593 129.499 22.2991 129.499 18.4176Z" fill="white"/>
<path d="M12.498 6.82471C12.498 6.82471 12.498 6.82861 12.498 6.83056C12.498 6.83641 12.498 6.84032 12.498 6.84422C12.498 6.84032 12.498 6.83446 12.4961 6.82471H12.498Z" fill="white"/>
<path d="M30.3714 8.90089C30.1104 6.03623 28.4507 3.89685 25.8643 2.90487L23.2548 1.78625C22.3204 1.38524 21.2843 1.1454 20.1734 1.0744C18.2374 0.949687 16.2975 0.938174 14.4095 1.03603C12.3104 1.14732 10.2267 1.39675 8.21202 1.78049C4.37073 2.51345 1.73824 5.16897 1.34299 8.7071C0.801905 13.5787 0.7501 18.2892 1.18949 23.1071C1.42357 25.6821 2.97966 27.8867 5.24759 28.8575L8.13719 30.097C8.79339 30.3753 9.5014 30.5518 10.2459 30.6017C11.5218 30.6842 12.8054 30.7264 14.0833 30.7264C15.0983 30.7264 16.1095 30.6995 17.1111 30.6477C19.3771 30.5288 21.6891 30.2716 23.9839 29.8802C27.217 29.3296 29.8399 26.4572 30.2198 23.0476C30.759 18.1971 30.8088 13.7015 30.3714 8.90089ZM5.37615 10.0732C5.77908 6.46411 8.70897 4.64707 11.3165 4.15012C11.6101 4.09448 11.9056 4.04076 12.201 3.99279C12.201 4.60294 12.2529 5.20926 12.3411 5.80598C12.3814 6.08995 12.4371 6.36817 12.4773 6.65022C12.485 6.70011 12.4908 6.75 12.4985 6.79988C12.4985 6.80372 12.4985 6.81907 12.5042 6.84977C12.5042 6.86512 12.508 6.88239 12.508 6.89774C12.5196 7.01094 12.5292 7.12223 12.5387 7.23543C12.5656 7.65563 12.5637 8.07967 12.5196 8.50179C12.5157 8.54017 12.5119 8.58046 12.5061 8.61883C12.5061 8.61883 12.5061 8.62843 12.5023 8.64186V8.65145C12.4985 8.6668 12.4965 8.68407 12.4946 8.69366C12.4793 8.79536 12.4601 8.89513 12.4371 8.99682C12.3968 9.16951 12.3488 9.34219 12.2912 9.51104C12.2778 9.5475 12.2644 9.58395 12.2509 9.61849C12.2433 9.64151 12.2337 9.66262 12.2241 9.68373C12.1876 9.76239 12.1512 9.84298 12.1109 9.91973C12.0706 9.99648 12.0264 10.0713 11.9823 10.1442C11.9612 10.1749 11.9401 10.2056 11.919 10.2421C11.9113 10.2536 11.8979 10.2709 11.8864 10.2862C11.7808 10.4205 11.6696 10.5472 11.5468 10.6623C11.5257 10.6834 11.5026 10.7045 11.4969 10.7083C11.4969 10.7083 11.4432 10.7525 11.4297 10.764C11.3568 10.8196 11.282 10.8733 11.2033 10.9251C11.1362 10.9693 11.0671 11.0115 10.9942 11.0499C10.9788 11.0575 10.9155 11.0882 10.9155 11.0902C10.8848 11.1036 10.8541 11.117 10.8215 11.1304C10.6469 11.2072 10.4665 11.2667 10.2842 11.3127C10.2363 11.3262 10.1883 11.3377 10.1403 11.3492C10.1269 11.3511 10.077 11.3607 10.0655 11.3645C9.95998 11.3818 9.85637 11.3971 9.75276 11.4087C9.64723 11.4202 9.54362 11.4278 9.44 11.4336C9.31721 11.4394 9.19633 11.4413 9.07353 11.4413C8.41349 11.4355 7.76112 11.3377 7.10684 11.2763C6.49668 11.2168 5.88461 11.165 5.26294 11.1631C5.29748 10.8004 5.33585 10.4378 5.37615 10.0732ZM5.17852 12.0917C6.4065 12.0917 7.60762 12.3124 8.83177 12.3642C9.03132 12.3719 9.23086 12.3719 9.43233 12.3642C10.1231 12.3277 10.8138 12.1685 11.4451 11.8212C12.9148 11.0096 13.4501 9.26161 13.4329 7.65947C13.4271 7.10496 13.3638 6.55045 13.2698 6.00937C13.147 5.29944 13.0779 4.58376 13.0798 3.85464C13.9317 3.728 14.7932 3.62631 15.6586 3.54764C15.6145 5.5105 15.9905 7.44457 16.4376 9.30766C16.5393 9.72786 16.6448 10.1461 16.7523 10.5625C16.7964 10.7371 16.8386 10.9136 16.8731 11.0921C16.8885 11.1707 16.9019 11.2494 16.9154 11.33C16.9211 11.376 16.9288 11.4259 16.9345 11.472C16.9384 11.495 16.9403 11.518 16.9441 11.5391C16.9441 11.5391 16.9461 11.5564 16.948 11.589C16.9825 11.9325 16.9921 12.2817 16.9748 12.6328C16.9652 12.7978 16.9518 12.9667 16.9307 13.1278C16.9288 13.1278 16.9058 13.2679 16.9019 13.2967C16.8866 13.3869 16.8674 13.4751 16.8463 13.5653C16.8117 13.7284 16.7676 13.8896 16.7177 14.0488C16.6909 14.1275 16.664 14.2042 16.6352 14.2829C16.6256 14.3098 16.616 14.3366 16.6064 14.3635C16.6045 14.3635 16.5604 14.4671 16.5566 14.4786C16.4932 14.6206 16.4222 14.7588 16.3474 14.8931C16.3071 14.9621 16.2668 15.0312 16.2246 15.1003C16.2035 15.1291 16.1843 15.1598 16.1632 15.1905C16.1536 15.2058 16.1421 15.2231 16.121 15.2519C16.0289 15.3804 15.9272 15.5013 15.8198 15.6183C15.7699 15.6701 15.72 15.722 15.6682 15.7718C15.6375 15.8025 15.6049 15.8313 15.5147 15.91C15.3957 16.0059 15.271 16.0961 15.1425 16.1786C15.0695 16.2247 14.9928 16.2688 14.916 16.311C14.8949 16.3225 14.8738 16.334 14.8546 16.3436C14.8527 16.3436 14.751 16.3916 14.7395 16.3973C14.2771 16.5988 13.8109 16.7005 13.335 16.7254C13.1067 16.737 12.8745 16.7312 12.6385 16.712C11.8154 16.6391 11.021 16.3839 10.2478 16.1191C9.36134 15.816 8.48448 15.4764 7.55774 15.2979C7.05119 15.2001 6.54849 15.1636 6.04386 15.1905C5.69082 15.2077 5.33969 15.2576 4.98473 15.3382C5.0231 14.2599 5.08834 13.1796 5.17852 12.0936V12.0917ZM4.95594 16.2803C5.31858 16.1863 5.6793 16.1306 6.03811 16.1115C6.44679 16.0903 6.85356 16.1172 7.26033 16.192C8.11225 16.3513 8.92579 16.6487 9.73741 16.9327C10.8867 17.3337 12.1128 17.7098 13.3523 17.6464C13.7878 17.6234 14.2272 17.5447 14.6628 17.3932C16.0366 16.9212 17.0516 15.7584 17.5313 14.3366C17.7634 13.6516 17.8651 12.9168 17.8613 12.2068C17.8575 11.4029 17.6944 10.6488 17.5025 9.88711C16.9768 7.81297 16.4856 5.67167 16.5354 3.47473C16.8098 3.45555 17.0842 3.4402 17.3586 3.42485C17.9035 3.39606 18.4542 3.37688 19.0068 3.36728C18.8053 4.53962 18.8302 5.71005 19.0413 6.85744C19.2428 7.95879 19.5977 9.00833 19.9719 10.0444C20.701 12.0687 21.6009 14.187 21.4608 16.4549C21.338 18.46 20.1868 20.4612 18.2968 21.2114C17.7442 21.4302 17.1878 21.5376 16.6314 21.5664C15.0273 21.6508 13.4252 21.0905 11.9094 20.7164C10.8407 20.4516 9.73165 20.2482 8.61303 20.3058C8.57466 20.3077 8.5382 20.3096 8.50175 20.3135C7.30255 20.396 6.12253 20.8142 5.11712 21.5817C5.09026 21.6028 5.06339 21.624 5.03653 21.6451C4.93868 19.853 4.91181 18.0705 4.95594 16.2803ZM6.33935 27.2305C5.72535 26.392 5.32818 25.3674 5.22457 24.2411C5.17852 23.7403 5.13822 23.2414 5.10369 22.7426C5.93258 21.9636 6.95142 21.4455 8.02782 21.2901C8.21394 21.2632 8.40197 21.246 8.58809 21.2364C9.53594 21.1865 10.4742 21.3419 11.3875 21.5568C13.1124 21.9597 14.8566 22.5795 16.6525 22.4855C17.1149 22.4605 17.5831 22.3895 18.0532 22.2533C20.1753 21.6451 21.7601 19.6918 22.2053 17.4507C22.66 15.1444 21.9578 12.8976 21.2114 10.8292C20.4477 8.71669 19.5594 6.55045 19.7685 4.17699C19.7934 3.90261 19.8337 3.63015 19.8875 3.35961C20.513 3.35961 21.1404 3.37304 21.7678 3.3999C21.4896 6.20316 22.7176 8.68599 23.8995 11.023C24.502 12.2145 25.1275 13.408 25.5515 14.6897C25.9564 15.9138 26.1233 17.1265 26.0139 18.4504C25.8029 20.9486 24.4886 23.4237 22.3358 24.7534C21.2843 25.4038 20.1657 25.6629 19.0279 25.7223C17.3567 25.8106 15.6432 25.4672 14.0315 25.2964C13.1949 25.2081 12.3565 25.1602 11.5141 25.2043C11.0671 25.2273 10.6181 25.2772 10.171 25.3597C8.92387 25.588 7.6767 26.0236 6.66937 26.912C6.55424 27.0117 6.44487 27.1192 6.33935 27.2305ZM29.0762 22.9191C28.752 25.8298 26.5282 28.28 23.7901 28.7463C21.5395 29.1281 19.2715 29.3814 17.0516 29.4984C14.8297 29.6135 12.5637 29.5982 10.3207 29.4524C9.00062 29.366 7.81293 28.7942 6.91496 27.902C7.64408 27.0981 8.62263 26.6644 9.6549 26.4016C10.2593 26.2462 10.8906 26.1617 11.5257 26.1291C12.1185 26.0965 12.7172 26.1119 13.2986 26.1579C15.1847 26.3076 17.136 26.7508 19.0605 26.6491C20.0237 26.5992 20.9811 26.4112 21.9175 25.9833C24.4118 24.8455 26.1866 22.3435 26.7277 19.5843C26.9867 18.2528 26.9867 16.8943 26.7239 15.5972C26.4495 14.2445 25.8835 12.9839 25.2925 11.7751C24.1489 9.43237 22.6044 7.00135 22.5929 4.2403C22.5929 3.98319 22.6025 3.69539 22.6312 3.44211C22.7502 3.44595 22.8692 3.45363 22.9881 3.4613C26.5992 3.69539 28.9304 5.76761 29.2259 9.0045C29.6538 13.7265 29.6058 18.1472 29.0762 22.9191Z" fill="#0067F6"/>
</g>
</svg>
