<svg width="147" height="49" viewBox="0 0 147 49" fill="none" xmlns="http://www.w3.org/2000/svg">
<path d="M16.1733 32.8015C25.1055 32.8015 32.3465 25.5605 32.3465 16.6282C32.3465 7.69597 25.1055 0.454956 16.1733 0.454956C7.24102 0.454956 0 7.69597 0 16.6282C0 25.5605 7.24102 32.8015 16.1733 32.8015Z" fill="white"/>
<path d="M30.1811 48.1862C39.1133 48.1862 46.3543 40.9452 46.3543 32.013C46.3543 23.0807 39.1133 15.8397 30.1811 15.8397C21.2488 15.8397 14.0078 23.0807 14.0078 32.013C14.0078 40.9452 21.2488 48.1862 30.1811 48.1862Z" fill="white"/>
<path d="M44.2047 33.1263C43.6635 40.3935 37.6024 46.1299 30.1961 46.1299C22.7898 46.1299 16.7287 40.3935 16.1875 33.1263H44.2047Z" fill="url(#paint0_linear_1_562)"/>
<path d="M30.1815 15.4995C29.6403 8.23239 23.5792 2.49599 16.1729 2.49599C8.76659 2.49599 2.70548 8.23239 2.16431 15.4995H30.1815Z" fill="url(#paint1_linear_1_562)"/>
<path d="M30.1811 17.8188H2.14844C2.68961 25.0859 8.75072 30.8223 16.157 30.8223H44.1896C43.6639 23.5397 37.5874 17.8188 30.1811 17.8188Z" fill="url(#paint2_linear_1_562)"/>
<path d="M61.1695 35.6465C58.0926 35.6465 55.7733 35.1672 54.2271 34.2085C54.1034 34.1312 54.0416 33.9921 54.057 33.8529L54.4281 30.2194C54.459 29.941 54.7528 29.8019 55.0002 29.941C55.2321 30.0802 55.495 30.2193 55.7888 30.3585C56.3145 30.6059 56.8556 30.8378 57.4432 31.0388C58.0153 31.2398 58.6183 31.3945 59.2368 31.5182C59.8553 31.6419 60.4428 31.7037 61.0149 31.7037C62.2055 31.7037 63.025 31.4718 63.5043 31.0234C63.9836 30.575 64.2156 30.0183 64.2156 29.3689C64.2156 28.7505 64.0455 28.2711 63.7053 27.9464C63.3652 27.6217 62.8858 27.3434 62.2519 27.096C61.6179 26.8641 60.8448 26.6012 59.948 26.3384C59.0513 26.0755 58.0308 25.6581 56.902 25.086C56.0516 24.6066 55.4177 24.0191 55.0002 23.3388C54.5827 22.643 54.3199 21.6843 54.2426 20.4474C54.2426 19.5815 54.3972 18.7311 54.691 17.9271C54.9847 17.123 55.4486 16.4118 56.0671 15.7933C56.6856 15.1748 57.4896 14.68 58.4482 14.2935C59.8089 13.7678 61.5716 13.5977 63.7362 13.8142C64.2001 13.8605 64.6794 13.9379 65.1433 14.0306C66.5967 14.3399 67.6945 14.711 68.4212 15.1594C68.5449 15.2367 68.6068 15.3758 68.5913 15.515L68.2202 19.0712C68.1893 19.365 67.8646 19.5042 67.6172 19.3341C67.4317 19.1949 67.2307 19.0558 67.0142 18.9166C66.5812 18.6383 66.1019 18.3909 65.5917 18.1744C65.0814 17.958 64.5557 17.7879 63.9836 17.6642C63.427 17.5405 62.8704 17.4787 62.3292 17.4787C61.3087 17.4787 60.4738 17.6642 59.8089 18.0507C59.144 18.4373 58.8193 19.0094 58.8193 19.798C58.8193 20.4783 59.0358 20.9885 59.4687 21.3132C59.9017 21.6534 60.4738 21.9626 61.2005 22.241C61.2159 22.241 61.2314 22.2564 61.2314 22.2564L61.9272 22.4574C62.0973 22.5193 62.3756 22.5966 62.7467 22.6894C63.1332 22.7821 63.4115 22.8594 63.6125 22.9213C64.4784 23.1687 65.2824 23.4779 65.9937 23.8026C66.7049 24.1428 67.3234 24.5603 67.8337 25.0705C68.3439 25.5807 68.7305 26.1838 68.9933 26.895C69.2562 27.6063 69.3953 28.4258 69.3953 29.3844C69.4572 33.5746 66.6895 35.6465 61.1695 35.6465Z" fill="white"/>
<path d="M90.5637 25.7974H77.6529C77.4055 25.7974 77.22 26.0139 77.2664 26.2612C77.5911 27.8693 78.3178 29.0908 79.4156 29.9412C80.6216 30.8689 81.9823 31.3328 83.513 31.3328C83.9923 31.3328 84.518 31.2864 85.0747 31.2091C85.6468 31.1318 86.2189 31.0081 86.791 30.8535C87.363 30.6988 87.9351 30.5133 88.5072 30.2968C88.8629 30.1577 89.203 30.0185 89.5277 29.8639C89.7751 29.7402 90.0534 29.9257 90.0689 30.1886L90.2699 33.7758C90.2854 33.9304 90.1926 34.085 90.0534 34.1469C88.0434 35.1364 85.7705 35.6312 83.2192 35.6312C81.3638 35.6312 79.7248 35.3529 78.3023 34.7808C76.8798 34.2242 75.6892 33.4511 74.7151 32.477C73.741 31.5029 73.0143 30.3432 72.5195 29.0135C72.0247 27.6683 71.7773 26.2303 71.7773 24.6841C71.7773 23.1688 72.0093 21.7463 72.4731 20.4166C72.937 19.0869 73.6019 17.9272 74.4832 16.9222C75.3491 15.9172 76.4159 15.1441 77.6684 14.572C78.9208 14.0153 80.3433 13.7216 81.9204 13.7216C83.2502 13.7216 84.4717 13.938 85.6158 14.371C86.76 14.8039 87.7496 15.4224 88.5691 16.2264C89.404 17.0304 90.0534 17.9891 90.5173 19.1178C90.9812 20.2465 91.2131 21.4989 91.2131 22.8751C91.2131 23.5863 91.1203 24.4367 90.9348 25.4263C90.9193 25.6582 90.7492 25.7974 90.5637 25.7974ZM77.8075 22.2411H85.4921C85.7086 22.2411 85.8942 22.0556 85.8787 21.8391C85.8169 20.8959 85.5076 20.061 84.951 19.3188C84.3325 18.4684 83.3584 18.0509 82.0596 18.0509C80.7608 18.0509 79.7094 18.4375 78.9208 19.1951C78.225 19.86 77.7302 20.7104 77.4364 21.7618C77.3746 22.0092 77.5601 22.2411 77.8075 22.2411Z" fill="white"/>
<path d="M112.952 31.3325L112.519 35.3062C112.504 35.5072 112.334 35.6464 112.133 35.6464H110.571C108.484 35.6464 106.984 34.966 106.072 33.5899C105.948 33.3889 105.654 33.3889 105.484 33.5435C104.031 34.9351 101.99 35.6309 99.3612 35.6309C98.4799 35.6309 97.6759 35.4763 96.9337 35.1825C96.1915 34.8887 95.5421 34.4712 94.9855 33.9146C94.4289 33.358 94.0114 32.7086 93.7021 31.9355C93.3929 31.1624 93.2383 30.281 93.2383 29.2915C93.2383 27.8535 93.6558 26.6629 94.5062 25.7043C95.3566 24.7456 96.3771 23.9725 97.5986 23.4005C98.8046 22.8284 100.103 22.4109 101.464 22.148C102.67 21.9316 103.752 21.7924 104.727 21.746C104.943 21.7306 105.113 21.545 105.082 21.344C104.989 20.2771 104.68 19.5195 104.185 19.0556C103.629 18.5299 102.67 18.2671 101.309 18.2671C99.7633 18.2671 98.0006 18.7309 96.006 19.6432C95.7741 19.7514 95.4957 19.5968 95.4648 19.3494L95.0937 15.8859C95.0783 15.7158 95.171 15.5612 95.3257 15.4839C97.8614 14.3243 100.335 13.7367 102.763 13.7367C107.865 13.7367 110.417 16.5662 110.417 22.2253V27.9308C110.417 28.6885 110.432 29.2915 110.478 29.7553C110.525 30.2037 110.602 30.5439 110.726 30.7913C110.85 31.0387 111.051 31.1778 111.298 31.2397C111.545 31.3015 111.87 31.317 112.272 31.317H112.952V31.3325ZM105.175 29.9254V25.7043C105.175 25.4724 104.974 25.3023 104.757 25.3177C104.093 25.3796 103.428 25.4878 102.794 25.627C102.021 25.7971 101.34 26.0445 100.737 26.3692C100.15 26.6939 99.6705 27.0804 99.2994 27.5288C98.9283 27.9772 98.7428 28.5029 98.7428 29.0905C98.7428 30.7758 99.6859 31.6262 101.572 31.6262C102.84 31.6262 104 31.1624 105.036 30.2192C105.129 30.1573 105.175 30.0337 105.175 29.9254Z" fill="white"/>
<path d="M123.591 31.7656L123.204 35.3064C123.189 35.5074 123.018 35.6465 122.817 35.6465H121.271C119.462 35.6465 118.117 35.1363 117.22 34.1003C116.323 33.0798 115.875 31.7346 115.875 30.1111V3.90303C115.875 3.68656 116.045 3.51648 116.262 3.51648H120.73C120.947 3.51648 121.117 3.68656 121.117 3.90303V27.9465C121.117 28.7659 121.132 29.3999 121.178 29.8483C121.225 30.2967 121.333 30.6368 121.503 30.8379C121.673 31.0543 121.921 31.178 122.261 31.2399C122.508 31.2862 122.833 31.3017 123.235 31.3172C123.451 31.3326 123.621 31.5336 123.591 31.7656Z" fill="white"/>
<path d="M145.67 35.2138H141.449C141.248 35.2138 141.093 35.0591 141.078 34.8581L141.016 34.0232C139.439 35.0901 137.723 35.6312 135.852 35.6312C134.182 35.6312 132.713 35.3529 131.43 34.7808C130.146 34.2242 129.064 33.4356 128.198 32.4306C127.317 31.4256 126.652 30.2659 126.188 28.9362C125.724 27.6065 125.492 26.1839 125.492 24.6687C125.492 23.1534 125.724 21.7154 126.203 20.3857C126.683 19.0405 127.363 17.8808 128.26 16.8913C129.141 15.9017 130.239 15.1286 131.507 14.572C132.79 14.0153 134.228 13.7216 135.836 13.7216C137.491 13.7216 138.944 14.0772 140.227 14.7884C140.475 14.9276 140.769 14.7266 140.769 14.4483V3.90319C140.769 3.68672 140.939 3.5321 141.14 3.5321H145.624C145.84 3.5321 145.995 3.70219 145.995 3.90319V34.8427C146.041 35.0437 145.871 35.2138 145.67 35.2138ZM136.223 18.0664C134.537 18.0664 133.239 18.6694 132.311 19.86C131.383 21.0506 130.919 22.6741 130.919 24.6996C130.919 26.7251 131.383 28.3486 132.311 29.5392C133.239 30.7298 134.537 31.3328 136.223 31.3328C137.846 31.3328 139.068 30.7452 139.856 29.5547C140.66 28.3641 141.062 26.756 141.062 24.6996C141.062 22.6431 140.66 21.0196 139.856 19.8445C139.052 18.6539 137.846 18.0664 136.223 18.0664Z" fill="white"/>
<defs>
<linearGradient id="paint0_linear_1_562" x1="16.1875" y1="39.6281" x2="44.2047" y2="39.6281" gradientUnits="userSpaceOnUse">
<stop stop-color="#17B4FB"/>
<stop offset="1" stop-color="#01DCFA"/>
</linearGradient>
<linearGradient id="paint1_linear_1_562" x1="2.16431" y1="8.99776" x2="30.1815" y2="8.99776" gradientUnits="userSpaceOnUse">
<stop stop-color="#445DFC"/>
<stop offset="1" stop-color="#2D8CFB"/>
</linearGradient>
<linearGradient id="paint2_linear_1_562" x1="2.14844" y1="24.3206" x2="44.1896" y2="24.3206" gradientUnits="userSpaceOnUse">
<stop stop-color="#2D8CFB"/>
<stop offset="1" stop-color="#17B4FB"/>
</linearGradient>
</defs>
</svg>
