<svg width="164" height="61" viewBox="0 0 164 61" fill="none" xmlns="http://www.w3.org/2000/svg">
<g id="Molotov 2">
<g id="Group">
<path id="Vector" fill-rule="evenodd" clip-rule="evenodd" d="M127.005 45.1035C117.258 39.4274 90.5936 38.4261 64.4606 40.691C56.4436 41.3885 49.1654 42.4104 41.1381 43.9538C41.1381 43.9641 41.1346 43.971 41.1329 43.9814C41.5437 43.9676 44.1988 43.6396 45.4418 43.4462C44.3369 43.7449 41.1829 44.3439 41.0466 44.3784C41.0466 44.3905 41.0241 44.4061 41.0328 44.4061C41.0897 44.4061 43.6153 44.0435 45.0982 43.864C43.3719 44.2524 40.9723 44.753 40.9689 44.7617C40.9689 44.772 40.9689 44.772 40.9654 44.7789C40.9654 44.7841 43.2683 44.463 44.9014 44.3008C43.3961 44.6201 40.9516 45.2226 40.9516 45.2278V45.2571C40.9482 45.2623 43.1924 44.9412 44.8358 44.7669C43.3719 45.0672 41.0725 45.7129 41.0725 45.7163V45.7474C41.0759 45.7526 43.4841 45.3935 44.9325 45.2088C43.4513 45.561 41.2727 46.1531 41.2762 46.1704L41.29 46.2308C48.7511 44.9188 57.69 43.9037 65.9072 43.5481C102.909 41.9253 122.741 47.5065 127.616 52.8149C128.807 51.2889 130.746 47.2907 127.003 45.1069L127.005 45.1035ZM31.8954 46.6986C31.8954 46.6813 31.8954 46.6641 31.8988 46.6468C31.8988 46.6365 29.8514 46.9058 28.239 47.3546C29.4302 46.923 31.8298 46.2877 31.8298 46.2791C31.8298 46.2584 31.8298 46.2411 31.8263 46.2221C31.8263 46.2152 29.4923 46.6192 28.1458 46.9903C29.5269 46.5122 31.7089 45.958 31.7055 45.9425C31.7055 45.9321 31.7003 45.9149 31.6951 45.8976C25.4113 47.3132 19.8526 48.8254 15.1518 50.3808C12.8869 51.1301 15.0862 52.1244 17.106 51.5806C22.0364 50.2548 26.9288 49.0844 31.7486 48.0693C31.7486 48.0555 31.7538 48.0451 31.7555 48.0382C31.6692 48.0348 28.933 48.3938 27.6935 48.7685C28.7 48.4059 31.7158 47.6636 31.8574 47.6533L31.8712 47.598C31.8712 47.5859 29.4475 47.9001 28.0215 48.2937C29.6667 47.7137 31.9092 47.1785 31.9126 47.1664L31.9213 47.1026C31.9213 47.0957 29.8152 47.3822 28.1872 47.8C29.5165 47.2942 31.8919 46.7124 31.8919 46.6951L31.8954 46.6986Z" fill="#FFC107"/>
<path id="Vector_2" fill-rule="evenodd" clip-rule="evenodd" d="M156.891 36.3265L153.982 44.0138L150.996 36.3265H137.677V40.1831H141.177V51.2557H145.354V40.1848H150.74L148.62 41.0273L152.94 51.2574H155.008L160.874 37.2259V36.3282H156.891V36.3265ZM135.26 46.9088C133.914 46.9088 132.939 47.8307 132.939 49.1012C132.939 50.3528 133.916 51.2591 135.262 51.2591C136.585 51.2591 137.544 50.3528 137.544 49.1012C137.544 47.8531 136.564 46.9088 135.266 46.9088H135.26ZM39.6916 40.8097C39.8573 37.6333 40.6031 30.6348 41.5905 25.0485C42.1723 21.765 43.3393 16.2684 43.9728 13.1801C44.0453 12.8417 44.2145 11.6609 43.6224 10.9479C43.3255 10.5854 42.4105 9.94666 41.4645 9.54098C41.4472 9.5289 41.4213 9.52026 41.3955 9.51336C40.1525 9.02136 39.203 9.20607 38.2587 9.64801C36.5497 10.449 35.0996 12.0597 34.05 13.3717C31.041 17.1385 28.6293 23.0805 27.1102 27.3963C27.6799 24.4201 29.7066 15.7402 30.0501 13.5046C30.0898 13.2457 30.3643 12.5033 30.1623 12.0821C29.8827 11.5038 28.8054 10.6631 28.0424 10.3472C27.8439 10.266 27.6402 10.178 27.4296 10.0951L27.4123 10.0899C26.2677 9.70325 25.541 9.87416 24.5915 10.3523C22.8963 11.2086 21.4375 12.8486 20.4345 14.2124C17.6431 17.9982 14.9932 25.3299 13.6052 29.839C13.7779 28.7514 14.5771 23.607 14.6704 23.0546C15.1641 20.1302 17.0993 9.11976 17.4912 6.39563C17.5309 6.13668 17.6983 5.35984 17.5395 5.10435C17.2426 4.62098 16.3052 4.36894 15.6923 4.31024C14.8896 4.23083 13.4032 4.16868 12.6955 4.49496L12.6816 4.50014L12.6644 4.50532C12.6644 4.50532 12.6609 4.51049 12.6575 4.51049H12.6488C12.6454 4.51567 12.6402 4.51913 12.635 4.52085C12.5901 4.54329 12.5487 4.56919 12.509 4.59336C10.8448 5.63433 8.08619 9.56515 7.26101 10.9704C5.57094 13.8412 4.87697 15.0617 4.0656 16.6206C3.52353 17.6564 4.43675 20.4668 5.53814 18.7267C6.9589 16.4946 9.07364 13.4614 10.8656 11.4762C9.96787 17.3422 7.47334 36.4957 7.10909 38.9246C6.9192 40.19 5.96109 45.9162 8.2709 45.6538C8.32269 45.6538 8.38829 45.6434 8.4608 45.6244C9.20829 45.4345 12.0308 44.2779 12.2829 43.2041C13.588 37.635 17.8658 22.6437 23.9044 16.498C23.0119 21.2281 21.6775 30.0185 21.4789 31.769C21.1648 34.5622 20.3793 40.2349 22.2316 40.1503C22.292 40.1503 22.3594 40.1434 22.4474 40.1244C23.1984 39.9604 26.0589 38.9056 26.3213 37.8353C27.5573 32.8014 32.0526 21.0641 37.532 15.7419C37.1867 17.596 37.0572 18.2105 36.693 20.0473C35.5415 25.8478 33.3197 37.4072 33.2576 42.5188C33.2058 46.662 35.0996 49.9592 38.8509 51.0226C39.5863 51.2298 42.269 51.0485 41.7373 50.1767C39.9937 47.3214 39.5276 44.1122 39.695 40.8063L39.6916 40.8097ZM51.7482 36.0417C54.1339 35.5514 56.3453 34.1047 58.4687 31.1389C60.2934 28.5874 61.236 25.9997 61.9144 22.7974C62.0595 22.1155 62.1699 21.4888 62.2563 20.9088C63.5441 20.3305 64.7421 19.3896 65.683 18.0086C64.9493 22.3243 64.5747 25.2522 64.44 27.1097C64.2553 29.8028 64.5091 31.6775 65.1565 33.1432C65.8936 34.8263 67.2229 35.6688 68.7299 35.8707C70.8792 36.1642 72.3207 35.1233 74.0401 33.4763C74.2869 33.2416 74.5321 32.9757 74.7772 32.6822C75.8769 34.9817 78.2126 36.342 81.3994 35.7085C83.7869 35.2372 86.0121 33.8095 88.1614 30.8575C90.0085 28.3198 90.9752 25.7425 91.6796 22.5453C91.8246 21.8807 91.9385 21.2678 92.0318 20.6982C93.4266 20.163 94.7542 19.2653 95.7882 17.9274C94.9302 21.9221 94.4244 24.5841 94.2518 26.3864C93.9928 29.0656 94.2 30.9559 94.8094 32.4665C95.5086 34.1997 96.824 35.1371 98.338 35.453C100.491 35.9018 102.119 34.9075 103.741 33.4453C104.026 33.1915 104.311 32.9032 104.598 32.5925C105.59 35.1336 108.005 36.7011 111.392 36.0451C113.785 35.5876 116.014 34.1755 118.173 31.2546C120.033 28.7411 121.005 26.1827 121.726 23.0097C121.873 22.3623 121.985 21.7668 122.078 21.2143C123.817 20.4858 124.968 19.1773 125.717 17.1955C126.085 16.2218 125.838 13.7359 125.281 14.9858C124.11 17.6098 122.657 18.7405 121.106 19.1169C121.528 18.8648 121.952 18.5403 122.363 18.1242C122.363 16.4566 122.045 15.4363 121.736 14.7286C120.714 12.3808 118.324 12.5085 117.74 12.7502C117.757 11.3174 117.075 10.4404 114.736 10.8582C113.372 11.0998 111.998 11.635 110.866 12.4861C108.76 14.0691 106.899 16.7397 105.972 18.9908C104.988 21.3766 104.29 23.7244 103.995 26.1671C103.84 27.4377 103.84 28.9292 104.035 30.3103C103.831 30.5174 103.621 30.7108 103.4 30.8921C102.757 31.4272 101.703 32.0746 100.948 31.9624C99.3997 31.7276 99.612 28.9586 99.6621 27.8831C99.7691 25.613 100.551 22.4193 100.874 20.7016C101.15 19.2222 102.117 14.4696 103.677 8.52245C110.293 8.13231 115.848 8.94195 119.254 9.667C120.575 9.95012 122.154 10.4041 123.806 11.0394C127.875 12.7623 127.737 18.2951 127.283 21.563C126.27 28.8895 123.58 34.2049 123.525 35.1578C123.508 35.4806 123.421 36.5112 124.089 37.3295C124.428 37.7438 125.212 38.4222 126.178 39.0144C127.48 39.7843 128.381 39.7981 129.248 39.5668C131.297 39.0006 138.863 32.261 143.176 25.2211C145.532 21.3369 147.077 17.0125 147.07 15.5624C147.06 13.9172 140.743 14.3712 140.576 16.8606C140.293 20.8829 138.107 25.8288 134.993 29.6664C132.882 32.2593 130.568 34.3654 128.842 35.2199C130.491 30.5899 132.576 23.6916 133.03 17.1281C133.185 14.9564 133.07 11.7351 131.709 9.70153C129.365 6.19711 122.392 4.5174 113.414 4.55365C110.438 4.55365 107.406 4.75391 104.523 5.08881C105.076 2.73584 105.447 1.29609 105.504 1.00262C105.613 0.455379 104.675 0.225779 102.833 0.277568C100.94 0.329358 99.6672 0.619379 99.3462 1.92447C98.9698 3.47471 98.6556 4.66068 98.3242 6.05727C97.4679 6.22991 96.6445 6.40772 95.8642 6.59588C93.7477 7.10342 92.3511 7.52464 91.0478 8.0857C89.8307 8.51382 88.9658 11.5245 90.0465 11.1378C92.5565 10.2453 94.6903 9.72224 97.1762 9.28031L97.6302 9.2078C97.5094 9.76022 97.4058 10.2384 97.3454 10.5025C96.1024 16.0095 93.2661 18.0569 90.9752 18.4885C91.4137 18.2295 91.8557 17.8912 92.2907 17.4527C92.2614 15.8766 91.9523 14.9012 91.652 14.2141C90.6214 11.856 88.2304 11.9941 87.6469 12.2375C87.6607 10.7977 86.9736 9.91386 84.6345 10.342C83.2742 10.5906 81.9017 11.1309 80.7727 11.9923C78.6718 13.5926 76.8246 16.2909 75.9045 18.5575C74.9291 20.9606 74.2438 23.3273 73.9572 25.7908C73.7898 27.2288 73.8191 28.9499 74.0988 30.4777C73.9469 30.64 73.788 30.7971 73.6275 30.949C73.006 31.5291 71.9737 32.2541 71.2227 32.1954C69.6829 32.0746 69.8192 29.29 69.8417 28.2128C69.89 25.9341 70.584 22.8025 70.8602 21.0659C71.3902 17.5718 74.5891 1.56713 74.7686 0.609021C74.8635 0.0496943 73.9262 -0.112579 72.1014 0.0738628C70.2249 0.26721 68.9734 0.647 68.6902 1.97281C67.8392 5.98132 67.3264 9.08523 66.7481 12.1149C65.4448 16.2753 63.2782 18.1052 61.4069 18.6818C61.7694 18.4488 62.132 18.1639 62.4841 17.8066C62.4531 16.17 62.1285 15.1653 61.816 14.4662C60.763 12.1149 58.3738 12.2737 57.7937 12.5206C57.7937 11.0809 57.1032 10.2022 54.764 10.6493C53.4054 10.9082 52.0365 11.4606 50.9144 12.329C48.829 13.9448 47.006 16.6569 46.1048 18.9321C45.1519 21.3438 44.4856 23.7175 44.2232 26.1792C44.0022 28.2163 44.1765 30.8195 44.8964 32.6218C45.9219 35.1802 48.3594 36.7391 51.7464 36.0434L51.7482 36.0417ZM110.108 22.6938C110.876 20.3253 111.575 18.9822 112.863 17.4769C113.842 16.3289 115.378 15.7954 116.017 15.8541C115.62 16.4635 115.914 16.8502 116.535 16.9762C117.226 17.123 117.819 17.5683 118.034 18.7146C117.075 18.107 115.958 21.6321 117.265 21.8341C118.474 22.0205 119.863 21.9325 121.194 21.532C120.134 22.0844 118.964 22.3813 117.828 22.4521C117.352 25.1659 116.413 27.6707 115.187 29.4316C113.502 31.8484 111.677 32.8635 110.56 32.0314C108.834 30.7539 108.632 27.253 110.111 22.6955L110.108 22.6938ZM80.0563 22.2708C80.8159 19.8833 81.5099 18.5316 82.7891 17.009C83.7644 15.8524 85.2991 15.3051 85.9379 15.3656C85.5408 15.9767 85.8343 16.3668 86.4558 16.4946C87.1031 16.6258 87.6642 17.0228 87.9145 18.0068C87.0686 17.7254 86.1019 21.0624 87.3189 21.235C88.403 21.3939 89.6184 21.3524 90.8302 21.0659C89.8514 21.5527 88.8156 21.803 87.7919 21.86C87.3362 24.6462 86.3971 27.2288 85.1558 29.0363C83.4813 31.4738 81.6618 32.501 80.5397 31.6689C78.8099 30.388 78.5941 26.8646 80.0563 22.2708V22.2708ZM50.2894 22.6161C51.0266 20.2234 51.7085 18.8648 52.9756 17.3336C53.9423 16.1666 55.4701 15.6073 56.1106 15.6642C55.7221 16.2788 56.0191 16.6655 56.6405 16.7863C57.2965 16.9175 57.8628 17.318 58.1165 18.3279C57.357 18.2658 55.9932 21.3231 57.502 21.5492C58.6983 21.7305 60.0155 21.658 61.2912 21.2661C60.2434 21.8358 59.1195 22.1206 58.0147 22.1776C57.5779 24.957 56.6647 27.5292 55.4425 29.3384C53.7921 31.7897 51.9795 32.8307 50.8505 32.0073C49.1104 30.7401 48.8652 27.2185 50.2843 22.6161H50.2894Z" fill="white"/>
</g>
</g>
</svg>
