<svg width="170" height="40" viewBox="0 0 170 40" fill="none" xmlns="http://www.w3.org/2000/svg">
<g clip-path="url(#clip0_1_659)">
<path d="M6.03008 0.899878L0.279198 5.29225C0.103283 5.42661 0 5.6358 0 5.85774V9.50978C0 10.0923 0.659776 10.4273 1.12696 10.0819L8.96803 4.28552C9.309 4.03348 9.35465 3.53921 9.06576 3.22848L6.97551 0.980494C6.72767 0.713946 6.31914 0.679109 6.03008 0.899878Z" fill="white"/>
<path d="M23.7414 16.611L3.19505 30.9143C2.80183 31.1881 2.78694 31.7666 3.16554 32.0604L5.72774 34.0485C5.97173 34.2379 6.30981 34.2467 6.56331 34.0703L27.2025 19.7096C27.6034 19.4306 27.6096 18.8374 27.2145 18.5501L24.5594 16.6194C24.3162 16.4425 23.9882 16.4391 23.7414 16.611Z" fill="white"/>
<path d="M29.5865 22.5807L10.1435 35.9589C9.7475 36.2313 9.73098 36.8124 10.1109 37.1072L12.6757 39.0973C12.9163 39.2841 13.2489 39.2955 13.5016 39.1258L30.3797 27.7921C30.5761 27.6602 30.694 27.4387 30.694 27.2015V23.1668C30.694 22.5952 30.056 22.2576 29.5865 22.5807Z" fill="white"/>
<path d="M17.7734 1.12059L0.278068 14.5389C0.102819 14.6733 0 14.8821 0 15.1036V18.7381C0 19.3241 0.666576 19.6582 1.13286 19.3059L20.7232 4.50608C21.0592 4.25228 21.1019 3.76203 20.815 3.45345L18.72 1.20034C18.4718 0.933396 18.0625 0.898908 17.7734 1.12059Z" fill="white"/>
<path d="M30.3777 2.24401L0.298393 23.6524C0.111229 23.7856 0 24.0017 0 24.2321V27.8934C0 28.4713 0.650587 28.8075 1.11886 28.4715L31.1981 6.88813C31.384 6.75475 31.4943 6.53947 31.4943 6.31008V2.82366C31.4943 2.24697 30.8462 1.91054 30.3777 2.24401Z" fill="white"/>
<path d="M58.8918 33.0263C64.196 33.0263 68.454 28.6782 68.454 23.243C68.454 17.8079 64.196 13.4598 58.8918 13.4598C56.7267 13.4598 54.7059 14.1845 53.1185 15.4527V6.03174H48.3555V32.4828H52.7938V30.7798C54.4536 32.1929 56.5823 33.0263 58.8918 33.0263ZM58.2786 28.6057C55.4276 28.6057 53.1185 26.2505 53.1185 23.243C53.1185 20.1994 55.4276 17.8804 58.2786 17.8804C61.129 17.8804 63.4385 20.1994 63.4385 23.243C63.4385 26.2505 61.129 28.6057 58.2786 28.6057Z" fill="white"/>
<path d="M90.4963 14.003H85.9854V15.6335C84.3618 14.2566 82.2689 13.4595 79.9958 13.4595C74.6916 13.4595 70.4336 17.8076 70.4336 23.2427C70.4336 28.6779 74.6916 33.026 79.9958 33.026C82.2689 33.026 84.3618 32.2288 85.9854 30.8519V32.4825H90.4963V14.003ZM75.4491 23.2427C75.4491 20.1991 77.7227 17.8801 80.609 17.8801C83.46 17.8801 85.7331 20.1991 85.7331 23.2427C85.7331 26.2864 83.46 28.6054 80.609 28.6054C77.7227 28.6054 75.4491 26.2864 75.4491 23.2427Z" fill="white"/>
<path d="M92.6953 30.5258C94.2109 32.0114 97.0977 33.026 99.7316 33.026C103.809 33.026 106.443 30.6345 106.443 27.1198C106.443 24.5834 105.108 23.0615 101.68 21.576L101.103 21.3223C98.8292 20.344 98.216 19.8005 98.216 19.0033C98.216 18.0612 99.0099 17.5177 100.381 17.5177C101.644 17.5177 102.763 17.9525 103.917 18.7859L105.974 15.1987C104.531 14.1479 102.221 13.4595 100.092 13.4595C96.0151 13.4595 93.2727 15.8872 93.2727 19.2932C93.2727 21.7934 94.7882 23.3877 98.0717 24.7646L98.8656 25.0907C100.886 25.9603 101.427 26.4676 101.427 27.3372C101.427 28.388 100.67 28.9677 99.3344 28.9677C97.9995 28.9677 96.5203 28.388 95.0048 27.1923L92.6953 30.5258Z" fill="white"/>
<path d="M108.203 18.1699H111.522V32.4825H116.286V18.1699H120.399V14.003H116.286V8.74902H111.522V14.003H108.203V18.1699Z" fill="white"/>
<path d="M122.129 8.53157C122.129 10.1983 123.464 11.4303 125.16 11.4303C126.892 11.4303 128.263 10.1621 128.263 8.53157C128.263 6.86477 126.892 5.63281 125.16 5.63281C123.464 5.63281 122.129 6.86477 122.129 8.53157ZM122.814 32.4824H127.577V14.003H122.814V32.4824Z" fill="white"/>
<path d="M130.234 23.2427C130.234 28.6779 134.745 33.026 140.41 33.026C146.111 33.026 150.622 28.6779 150.622 23.2427C150.622 17.7713 146.111 13.4595 140.41 13.4595C134.745 13.4595 130.234 17.8076 130.234 23.2427ZM135.25 23.2427C135.25 20.2353 137.523 17.8801 140.41 17.8801C143.332 17.8801 145.57 20.2353 145.57 23.2427C145.57 26.2502 143.332 28.6054 140.41 28.6054C137.523 28.6054 135.25 26.2502 135.25 23.2427Z" fill="white"/>
<path d="M153.293 32.4827H158.056V21.4674C158.056 19.4384 159.68 17.8078 161.736 17.8078C163.793 17.8078 165.236 19.4384 165.236 21.6124V32.4827H169.999V20.8152C169.999 16.4309 167.005 13.3872 162.711 13.3872C160.618 13.3872 158.85 14.0757 157.731 15.3076V14.0032H153.293V32.4827Z" fill="white"/>
</g>
<defs>
<clipPath id="clip0_1_659">
<rect width="170" height="38.4906" fill="white" transform="translate(0 0.754883)"/>
</clipPath>
</defs>
</svg>
