<svg width="121" height="31" viewBox="0 0 121 31" fill="none" xmlns="http://www.w3.org/2000/svg">
<g id="Group 4">
<path id="Vector" d="M8.76588 6.77261C13.617 6.77261 16.3892 10.0021 16.7006 13.5812H13.444C13.1325 11.6066 11.6073 9.76724 8.7991 9.76724C5.40403 9.76724 3.39439 12.5256 3.39439 15.7606C3.39439 18.9955 5.40403 21.7512 8.7991 21.7512C11.6073 21.7512 13.1325 19.9118 13.444 17.9372H16.7006C16.3948 21.5136 13.6516 24.7472 8.76588 24.7472C3.3238 24.7472 0.0671387 20.697 0.0671387 15.7619C0.0671387 10.8269 3.22138 6.77261 8.76588 6.77261Z" fill="#FAFBFC"/>
<path id="Vector_2" d="M25.4548 14.1629C28.6492 13.9239 31.8809 14.2995 31.8463 12.4942C31.8103 11.0631 30.9785 9.62659 27.3316 9.62659C24.205 9.62659 23.1282 10.7832 22.8846 12.4942H19.6197C20.2425 8.50821 23.369 6.77261 27.47 6.77261C31.4643 6.77261 35.1819 8.13815 35.1819 14.5275V24.4741H31.8463V22.8013C31.8424 22.1037 31.9735 21.4117 32.2325 20.7625C32.3003 20.4553 32.4415 20.1836 32.1979 20.0798C31.9211 19.9787 31.8505 20.2532 31.7827 20.4225C30.7737 23.0075 28.4125 24.7472 25.1891 24.7472C21.8203 24.7472 19.0757 22.5691 19.0757 19.6059C19.0633 15.6254 22.0487 14.4005 25.4548 14.1629ZM25.6749 16.7847C23.5213 17.0906 22.4099 17.8403 22.4099 19.4407C22.4099 20.8363 23.5891 22.1308 26.4721 21.7621C29.1834 21.4207 31.8214 19.4803 31.8574 15.0846C30.7695 16.3805 28.3724 16.4147 25.6638 16.7902L25.6749 16.7847Z" fill="#FAFBFC"/>
<path id="Vector_3" d="M42.4571 8.4017C42.4541 9.04051 42.3369 9.67379 42.1111 10.2725C42.0087 10.5456 41.7997 10.8856 42.1111 10.9867C42.4225 11.0877 42.4917 10.7504 42.5263 10.6466C43.563 8.4017 45.6418 6.77261 48.4777 6.77261C53.0755 6.77261 56.3004 10.5838 56.3004 15.7551C56.3004 20.9264 53.0825 24.7363 48.4777 24.7363C45.7096 24.7363 43.5976 23.1372 42.5263 20.7912C42.4903 20.6888 42.3879 20.4171 42.1803 20.484C41.8343 20.5878 42.0073 20.8936 42.1097 21.1667C42.3293 21.7558 42.4463 22.3772 42.4557 23.0048V31H39.1423V7.0389H42.464L42.4571 8.4017ZM52.9759 15.751C52.9759 12.5229 51.2458 9.76178 47.7843 9.76178C44.6342 9.76178 42.453 12.5188 42.453 15.751C42.453 18.9832 44.6467 21.743 47.7885 21.743C51.25 21.743 52.98 18.9846 52.98 15.751H52.9759Z" fill="#FAFBFC"/>
<path id="Vector_4" d="M61.9468 18.4206C61.9828 19.748 63.0956 21.8918 66.5668 21.8918C69.9729 21.8918 70.9127 20.5659 70.9127 19.4421C70.9127 17.8758 69.4165 17.4006 65.3475 16.9909C60.6887 16.5157 59.2286 14.4374 59.2286 12.1569C59.2286 9.5351 61.6617 6.77261 66.5308 6.77261C71.0165 6.77261 73.451 9.29203 73.6946 12.5611H70.4338C70.3273 11.4373 69.5536 9.63205 66.4325 9.63205C63.6174 9.63205 62.5724 10.7573 62.5724 11.9125C62.5724 13.0677 63.2326 13.786 67.0941 14.1929C71.8912 14.7064 74.2566 16.0678 74.2566 18.9314C74.2566 22.4722 71.3016 24.7458 66.4325 24.7458C61.5884 24.7458 58.8521 22.2605 58.6819 18.4152L61.9468 18.4206Z" fill="#FAFBFC"/>
<path id="Vector_5" d="M77.1571 17.3898V7.03357H80.4899V16.707C80.4899 20.7627 82.2601 21.8783 84.5867 21.8783C87.1555 21.8783 89.9305 19.3248 89.9305 15.1694V7.03357H93.2674V24.4742H89.936V23.3149C89.9234 22.5249 90.0528 21.7389 90.318 20.9935C90.4246 20.6876 90.563 20.3817 90.2834 20.2779C90.0772 20.211 89.972 20.4486 89.9042 20.5865C89.0737 22.2252 86.9534 24.7405 83.7562 24.7405C79.6484 24.7473 77.1571 22.4983 77.1571 17.3898Z" fill="#FAFBFC"/>
<path id="Vector_6" d="M100.923 0V24.4854H97.4901V0H100.923Z" fill="#FAFBFC"/>
<path id="Vector_7" d="M120.355 16.7124H107.111C107.355 19.5117 109.304 21.7512 112.519 21.7512C114.912 21.7512 116.091 20.5946 116.714 18.5859H120.157C119.429 21.8154 117.002 24.7458 112.459 24.7458C106.876 24.7458 103.826 20.6956 103.826 15.7606C103.826 10.5169 107.286 6.77261 112.379 6.77261C116.326 6.77261 120.458 9.32617 120.458 15.5216C120.463 15.9209 120.429 16.3197 120.355 16.7124ZM117.13 13.9908C116.912 11.4359 115.258 9.63205 112.555 9.63205C109.225 9.63205 107.771 11.6408 107.295 13.9908H117.13Z" fill="#FAFBFC"/>
</g>
</svg>
