<svg width="163" height="34" viewBox="0 0 163 34" fill="none" xmlns="http://www.w3.org/2000/svg">
<g id="Group 48095878">
<path id="Vector" d="M55.5287 10.3218C54.3695 10.3218 53.4246 10.5697 52.6942 11.0655C52.0275 11.4957 51.4624 12.0655 51.0374 12.7355H50.9818C50.5567 12.0655 49.9914 11.4957 49.325 11.0655C48.5945 10.5697 47.6497 10.3218 46.4905 10.3218C44.5618 10.3218 43.0975 10.8599 42.097 11.9362C41.0966 13.0125 40.5956 14.5123 40.5938 16.4355V23.8196H44.4684V16.716C44.4684 15.7615 44.6608 15.0178 45.0454 14.4849C45.2579 14.2363 45.5215 14.0367 45.8185 13.8999C46.1157 13.763 46.4386 13.6921 46.7657 13.6921C47.0926 13.6921 47.4157 13.763 47.7127 13.8999C48.0099 14.0367 48.2735 14.2363 48.486 14.4849C48.869 15.0143 49.0611 15.758 49.063 16.716V23.8196H52.9377V16.716C52.9377 15.7615 53.129 15.0178 53.512 14.4849C53.7248 14.2367 53.9886 14.0375 54.2856 13.9009C54.5825 13.7643 54.9054 13.6936 55.2323 13.6936C55.5591 13.6936 55.882 13.7643 56.179 13.9009C56.4759 14.0375 56.7398 14.2367 56.9526 14.4849C57.3371 15.0143 57.5288 15.758 57.5269 16.716V23.8196H61.4016V16.4355C61.4016 14.5088 60.9014 13.009 59.9009 11.9362C58.9005 10.8635 57.443 10.3253 55.5287 10.3218Z" fill="white"/>
<path id="Vector_2" d="M73.763 11.214C72.6994 10.6067 71.4914 10.2985 70.2668 10.3221C69.0377 10.3012 67.8256 10.611 66.7574 11.2193C65.7374 11.8073 64.9016 12.6679 64.3437 13.7045C63.7739 14.7936 63.475 16.0042 63.4727 17.2335C63.4706 18.4626 63.7646 19.6745 64.3304 20.7657C64.8886 21.8024 65.7305 22.6588 66.7574 23.235C67.8648 23.8485 69.1148 24.1579 70.3806 24.1322C71.7548 24.1531 73.1067 23.7863 74.2818 23.0735C75.4537 22.3478 76.2908 21.1881 76.6108 19.8473H73.104C72.8521 20.2483 72.4823 20.5616 72.0454 20.7445C71.4846 20.9528 70.8883 21.0481 70.2907 21.025C69.5451 21.0502 68.813 20.8226 68.213 20.3793C67.6228 19.9042 67.2161 19.2391 67.0618 18.4975H76.9708C76.9893 18.1429 76.9999 17.722 76.9999 17.2351C77.0155 16.0073 76.7207 14.7955 76.1424 13.7124C75.5988 12.6733 74.7743 11.8077 73.763 11.214ZM67.0379 15.9012C67.1999 15.1937 67.6022 14.5643 68.176 14.12C68.7784 13.6704 69.5155 13.4381 70.2668 13.461C71.0299 13.4434 71.7762 13.6851 72.3841 14.1464C72.9595 14.5704 73.3515 15.198 73.4799 15.9012H67.0379Z" fill="white"/>
<path id="Vector_3" d="M89.0439 12.4761C88.6747 11.7941 88.1073 11.2403 87.4162 10.8881C86.6355 10.4959 85.7703 10.3014 84.8966 10.3217C83.8832 10.3245 82.8889 10.5987 82.0171 11.1157C81.0723 11.6793 80.3039 12.4962 79.7992 13.4739C79.2029 14.6358 78.9089 15.9292 78.9444 17.2348C78.9084 18.5403 79.2024 19.834 79.7992 20.9956C80.3023 21.9743 81.0709 22.7916 82.0171 23.3538C82.8889 23.8709 83.8832 24.1451 84.8966 24.1478C85.8084 24.1753 86.7117 23.9675 87.5194 23.5443C88.2221 23.1619 88.7869 22.5685 89.1339 21.8478L89.3589 23.8407H92.9239V4.67383H89.0439V12.4761ZM88.152 19.8496C87.8704 20.1368 87.5337 20.3647 87.1624 20.5192C86.7908 20.6738 86.392 20.7521 85.9897 20.7495C85.5583 20.7619 85.129 20.6831 84.7302 20.5184C84.331 20.3538 83.9711 20.1071 83.6739 19.794C83.0652 19.1589 82.7608 18.2979 82.7608 17.2109C82.7608 16.1241 83.0652 15.263 83.6739 14.6278C83.9714 14.3152 84.3313 14.0688 84.7302 13.9046C85.1293 13.7404 85.5586 13.6622 85.9897 13.675C86.3917 13.6725 86.7903 13.7506 87.1616 13.9048C87.5332 14.0588 87.8699 14.2858 88.152 14.5722C88.7697 15.1704 89.0783 16.0526 89.0783 17.2189C89.0783 18.3852 88.7697 19.2621 88.152 19.8496Z" fill="white"/>
<path id="Vector_4" d="M99.9723 10.6235H96.0977V23.817H99.9723V10.6235Z" fill="white"/>
<path id="Vector_5" d="M98.0416 3.96985C97.7269 3.96665 97.4148 4.0258 97.1232 4.14389C96.8315 4.26201 96.5661 4.43674 96.3424 4.65797C96.1127 4.87074 95.9303 5.12929 95.8067 5.41692C95.6831 5.70459 95.6212 6.01496 95.6252 6.328C95.622 6.63509 95.6845 6.93932 95.8081 7.22045C95.9317 7.50155 96.114 7.75308 96.3424 7.95833C96.8021 8.39023 97.4093 8.63065 98.0402 8.63065C98.6709 8.63065 99.2781 8.39023 99.7381 7.95833C99.967 7.75353 100.15 7.50207 100.273 7.22084C100.397 6.93964 100.459 6.6352 100.455 6.328C100.46 6.01485 100.398 5.70429 100.275 5.41653C100.151 5.12878 99.9683 4.87031 99.7381 4.65797C99.5147 4.43706 99.2497 4.26251 98.9586 4.14442C98.6672 4.0263 98.3557 3.96699 98.0416 3.96985Z" fill="white"/>
<path id="Vector_6" d="M109.263 13.6856C110.613 13.6856 111.53 14.2935 112.015 15.5092H115.75C115.535 14.0182 114.756 12.6664 113.574 11.7324C112.387 10.792 110.922 10.3218 109.181 10.3218C107.916 10.3011 106.667 10.6103 105.558 11.219C104.508 11.8008 103.639 12.6607 103.046 13.7042C102.447 14.7817 102.133 15.9941 102.133 17.2268C102.133 18.4596 102.447 19.6721 103.046 20.7495C103.639 21.7931 104.508 22.653 105.558 23.2347C106.667 23.8434 107.916 24.1526 109.181 24.1319C110.919 24.1319 112.383 23.66 113.574 22.716C114.756 21.782 115.535 20.4303 115.75 18.9392H112.015C111.528 20.1567 110.611 20.7654 109.263 20.7654C108.818 20.7794 108.374 20.6976 107.963 20.5253C107.553 20.3533 107.183 20.0947 106.881 19.7676C106.283 19.0562 105.955 18.1563 105.955 17.2268C105.955 16.2973 106.283 15.3976 106.881 14.6861C107.183 14.3582 107.552 14.0992 107.963 13.9266C108.374 13.7539 108.817 13.6718 109.263 13.6856Z" fill="white"/>
<path id="Vector_7" d="M127.764 12.6747C127.417 11.9371 126.847 11.3277 126.134 10.9332C125.313 10.5023 124.395 10.2917 123.468 10.3219C122.439 10.3253 121.429 10.5991 120.539 11.1159C119.582 11.6725 118.803 12.4906 118.294 13.474C117.696 14.6352 117.401 15.929 117.437 17.2349C117.4 18.5407 117.695 19.8347 118.294 20.9957C118.801 21.9808 119.58 22.7994 120.539 23.3539C121.43 23.8716 122.443 24.1452 123.474 24.1479C124.393 24.1757 125.304 23.9679 126.12 23.5445C126.828 23.1649 127.398 22.5713 127.748 21.848L127.949 23.8197H131.39V10.6236H128.1L127.764 12.6747ZM126.753 19.8498C126.467 20.1388 126.125 20.3674 125.748 20.522C125.372 20.6766 124.968 20.7541 124.561 20.7496C124.12 20.765 123.68 20.6877 123.27 20.5233C122.859 20.3587 122.488 20.1105 122.18 19.7942C121.56 19.159 121.251 18.298 121.253 17.2111C121.212 16.2708 121.545 15.3526 122.18 14.6571C122.484 14.3335 122.854 14.0786 123.265 13.9093C123.675 13.74 124.117 13.6602 124.561 13.6752C125.082 13.6792 125.592 13.8247 126.036 14.096C126.53 14.3918 126.937 14.8127 127.216 15.3161C127.535 15.8956 127.695 16.5495 127.679 17.2111C127.683 18.3809 127.374 19.2604 126.753 19.8498Z" fill="white"/>
<path id="Vector_8" d="M138.515 4.67383H134.641V23.8196H138.515V4.67383Z" fill="#1172D9"/>
<path id="Vector_9" d="M143.764 3.96985C143.45 3.96665 143.137 4.0258 142.846 4.14389C142.554 4.26201 142.289 4.43674 142.065 4.65797C141.835 4.87074 141.653 5.12929 141.529 5.41692C141.406 5.70459 141.344 6.01496 141.348 6.328C141.345 6.63509 141.407 6.93932 141.531 7.22045C141.655 7.50155 141.837 7.75308 142.065 7.95833C142.525 8.39023 143.132 8.63065 143.763 8.63065C144.394 8.63065 145.001 8.39023 145.461 7.95833C145.69 7.75353 145.872 7.50207 145.996 7.22084C146.12 6.93964 146.182 6.6352 146.178 6.328C146.182 6.01485 146.121 5.70429 145.997 5.41653C145.874 5.12878 145.691 4.87031 145.461 4.65797C145.237 4.43706 144.972 4.26251 144.681 4.14442C144.39 4.0263 144.078 3.96699 143.764 3.96985Z" fill="#1172D9"/>
<path id="Vector_10" d="M145.703 10.6236H141.828V23.8171H145.703V10.6236Z" fill="#1172D9"/>
<path id="Vector_11" d="M162.14 13.4607C161.634 12.4878 160.866 11.6757 159.922 11.1157C159.052 10.599 158.058 10.3248 157.046 10.3217C156.17 10.2987 155.302 10.4913 154.518 10.8828C153.827 11.235 153.26 11.7888 152.89 12.4708V4.67383H149.016V23.8196H152.581L152.806 21.8267C153.153 22.5468 153.718 23.1402 154.42 23.5232C155.229 23.9466 156.133 24.1544 157.046 24.1266C158.058 24.1234 159.052 23.8492 159.922 23.3326C160.869 22.7705 161.637 21.9532 162.14 20.9744C162.738 19.8131 163.032 18.5192 162.995 17.2136C163.031 15.9106 162.737 14.6197 162.14 13.4607ZM158.266 19.8126C157.968 20.1257 157.608 20.3723 157.21 20.537C156.81 20.7016 156.381 20.7804 155.95 20.768C155.548 20.7704 155.149 20.6918 154.777 20.5372C154.406 20.3827 154.069 20.1553 153.788 19.8682C153.17 19.27 152.861 18.3879 152.861 17.2215C152.861 16.0553 153.17 15.173 153.788 14.5749C154.07 14.2887 154.407 14.0619 154.778 13.9078C155.149 13.7537 155.548 13.6755 155.95 13.6777C156.381 13.6648 156.81 13.7431 157.209 13.9072C157.608 14.0714 157.968 14.3178 158.266 14.6305C158.874 15.2674 159.179 16.1285 159.179 17.2136C159.179 18.2987 158.874 19.1623 158.266 19.8046V19.8126Z" fill="#1172D9"/>
<path id="Vector_12" d="M20.3238 12.7078C20.81 11.5264 20.2465 10.1746 19.0651 9.68834C17.8839 9.20216 16.532 9.76571 16.0458 10.9471C15.5596 12.1285 16.1231 13.4803 17.3045 13.9665C18.4857 14.4527 19.8376 13.8892 20.3238 12.7078Z" fill="white"/>
<path id="Vector_13" d="M23.7988 0C21.565 0 19.9082 0.500214 18.1482 1.24921C16.3856 0.502861 14.7314 0 12.4976 0C5.93927 0 0.878906 4.66866 0.878906 11.2535C0.878906 16.7717 3.92783 20.0721 7.65958 23.5815L18.0953 33.3979H18.2012L28.6342 23.5815C32.3686 20.0721 35.4175 16.7717 35.4175 11.2535C35.4175 4.66866 30.3704 0 23.7988 0ZM18.1879 6.51866C21.131 6.51866 23.3647 8.99062 23.3647 11.8278C23.3647 14.665 21.2633 17.137 18.1879 17.137C15.1125 17.137 13.0084 14.6703 13.0084 11.8305C13.0084 8.99061 15.2422 6.52131 18.1879 6.52131V6.51866ZM25.7891 21.4377L18.1535 28.5836L10.5127 21.4377C7.39757 18.5264 4.54449 15.8798 4.54449 11.2403C4.54449 6.6801 7.85808 3.49885 12.4182 3.49885C13.2432 3.47839 14.0654 3.60199 14.8479 3.86408C13.2408 4.48289 11.8606 5.57688 10.8913 7.00019C9.9219 8.42347 9.40946 10.1084 9.42224 11.8305C9.42224 16.7717 13.3763 20.4797 18.1879 20.4797C22.9995 20.4797 26.9536 16.7744 26.9536 11.8305C26.9673 10.0993 26.451 8.40531 25.4741 6.97605C24.4972 5.54681 23.1062 4.45071 21.4883 3.83497C22.2571 3.58569 23.0622 3.46759 23.8702 3.48562C28.4304 3.48562 31.7413 6.66158 31.7413 11.227C31.7493 15.8798 28.8988 18.5079 25.7891 21.4377Z" fill="white"/>
</g>
</svg>
