<svg width="163" height="31" viewBox="0 0 163 31" fill="none" xmlns="http://www.w3.org/2000/svg">
<g id="Retour a&#204;&#128; l&#226;&#128;&#153;accueil 1" clip-path="url(#clip0_1_477)">
<path id="Vector" d="M112.318 10.6406C110.808 9.42221 108.864 8.81006 106.48 8.81006C103.361 8.81006 100.572 9.79663 98.1108 11.7757L100.014 14.468C102.04 13.0832 103.996 12.3879 105.869 12.3879C108.859 12.3879 110.356 13.7489 110.356 16.4709V17.2435H104.841C102.328 17.2435 100.337 17.7428 98.8684 18.7472C97.4002 19.7456 96.6602 21.2552 96.6602 23.2699C96.6602 25.2848 97.3531 26.8954 98.7334 28.1018C100.114 29.3083 101.858 29.9086 103.966 29.9086C106.779 29.9086 109.023 28.8923 110.697 26.8657V29.5996H114.579V16.3936C114.579 13.7786 113.821 11.8589 112.318 10.6406ZM110.315 21.9744C110.315 23.2818 109.81 24.322 108.794 25.0945C107.778 25.8672 106.592 26.2476 105.235 26.2476C103.878 26.2476 102.821 25.986 102.058 25.4571C101.294 24.9341 100.918 24.1674 100.918 23.1689C100.918 21.2195 102.451 20.2448 105.523 20.2448H110.315V21.9744Z" fill="white"/>
<path id="Vector_2" d="M137.631 9.11914H132.574L128.082 15.8588L123.747 9.11914H118.532L125.345 19.1692L118.156 29.5995H123.137L127.853 22.7826L132.687 29.5995H137.937L130.554 19.1276L137.631 9.11914Z" fill="white"/>
<path id="Vector_3" d="M143.909 0.994629C143.176 0.994629 142.54 1.26208 142.007 1.80291C141.472 2.34375 141.207 2.98562 141.207 3.72852C141.207 4.47144 141.472 5.11331 142.007 5.65414C142.54 6.19497 143.176 6.46243 143.909 6.46243C144.643 6.46243 145.277 6.19497 145.812 5.65414C146.347 5.11331 146.61 4.47144 146.61 3.72852C146.61 2.98562 146.347 2.34375 145.812 1.80291C145.277 1.26208 144.643 0.994629 143.909 0.994629Z" fill="white"/>
<path id="Vector_4" d="M146.001 9.11914H141.742V29.5995H146.001V9.11914Z" fill="white"/>
<path id="Vector_5" d="M83.6161 9.11882H78.1365L69.92 17.8197V3.29443L65.6562 5.20221V29.5993H69.92V23.7868L72.9976 20.6309L79.0116 29.5993H84.1858L75.9282 17.2432L83.6161 9.11882Z" fill="white"/>
<path id="Vector_6" d="M87.7617 29.5994H92.0197V2.80127L87.7617 4.715V29.5994Z" fill="white"/>
<path id="Vector_7" d="M160.299 26.1698C159.39 26.1698 158.678 25.8787 158.168 25.3021C157.663 24.7256 157.405 23.9471 157.405 22.9724V12.5836H162.732V9.11867H157.405V1.50537L153.146 3.41909V9.11867H150.598V12.5836H153.146V22.8594C153.146 25.0169 153.787 26.7285 155.067 28.0004C156.347 29.2723 157.892 29.9082 159.706 29.9082C160.776 29.9082 161.786 29.6644 162.743 29.1949V25.534C162.748 25.534 161.938 26.1698 160.299 26.1698Z" fill="white"/>
<path id="Vector_8" d="M23.6474 15.9501C23.7568 15.8589 23.6904 15.6807 23.5497 15.6807H18.5589C18.3751 15.6807 18.2266 15.8313 18.2266 16.0174V18.6795C18.2266 18.8658 18.3751 19.0163 18.5589 19.0163H21.4024C21.4845 19.0163 21.5588 18.9649 21.5862 18.8855C22.0242 17.7367 22.736 16.7305 23.6474 15.9501Z" fill="#FF7E30"/>
<path id="Vector_9" d="M45.1026 3.875C44.6451 6.78279 42.2905 9.72622 39.8304 11.1682C38.4224 11.913 36.8188 12.4914 35.2466 12.9193V12.9233C35.1879 12.939 35.1253 12.9509 35.0666 12.9668C32.411 13.6878 29.3954 14.0443 27.9209 14.4247C27.874 14.4366 27.8387 14.4485 27.8075 14.4603C24.7333 15.2962 22.4688 18.1367 22.4688 21.5118C22.4688 21.5515 22.4726 21.5951 22.4726 21.6346C22.4726 21.7178 22.4766 21.801 22.4805 21.8803C22.4805 21.8842 22.4805 21.8842 22.4805 21.8882C22.4961 22.2447 22.5391 22.6052 22.6134 22.9657C22.6174 22.9816 22.6213 22.9975 22.6213 23.0094C22.633 23.0688 22.6487 23.1322 22.6643 23.1916C23.0437 24.8238 23.9628 26.242 25.2222 27.2482C25.2535 27.276 25.2848 27.2998 25.3161 27.3235C25.3396 27.3433 25.363 27.3592 25.3865 27.3789C26.6811 28.401 28.1438 28.821 29.5636 28.817C29.6066 28.817 29.6458 28.821 29.6888 28.821C31.8908 28.821 33.858 27.8186 35.18 26.2459C35.1879 26.238 35.1957 26.2261 35.2035 26.2183C35.7823 25.517 36.2321 24.7049 36.5216 23.8214C36.725 23.247 36.8462 22.732 36.9166 22.328C36.0639 21.9319 35.0901 21.6149 33.9911 21.4286C33.9793 21.5673 33.9637 21.7021 33.9442 21.8288C33.9442 21.8328 33.9402 21.8367 33.9402 21.8447C33.8854 22.1893 33.8073 22.4983 33.7095 22.7677C33.6508 22.9301 33.5843 23.0728 33.5217 23.1955C33.5178 23.2035 33.5139 23.2114 33.5099 23.2154C33.4825 23.2629 33.4592 23.3064 33.4318 23.35C33.4161 23.3737 33.4005 23.3975 33.3888 23.4213C33.3691 23.449 33.3535 23.4768 33.334 23.5006C32.892 24.1304 32.2858 24.3801 31.6521 24.3245C31.6052 24.3207 31.5583 24.3207 31.5074 24.3127C31.3784 24.2929 31.261 24.2572 31.1476 24.2176C30.3927 23.9562 29.9625 23.2986 29.943 22.5736C29.943 22.5498 29.9469 22.53 29.9469 22.5063C29.9509 22.1496 30.0486 21.7853 30.2558 21.4445C30.299 21.3732 30.3497 21.3098 30.4084 21.2504C31.1242 20.3392 32.3366 20.1372 33.4474 20.2283V20.2323C36.1148 20.4661 38.2621 21.3376 39.8422 22.4231C44.4065 25.5448 45.1144 29.7083 45.1144 29.7083H46.4989V29.1893V28.306V5.30512V4.45338V3.875H45.1026Z" fill="#FF7E30"/>
<path id="Vector_10" d="M16.3291 14.4563C13.9863 14.3494 12.8325 12.7132 12.8325 12.7132C11.4558 11.0058 9.33202 9.9401 6.96968 10.0272C3.27363 10.158 0.215086 13.1847 0.011705 16.9283C-0.222965 21.1632 3.10152 24.6731 7.23563 24.6731C9.49238 24.6731 11.5105 23.6233 12.8364 21.9833C12.8364 21.9833 13.9863 20.3471 16.333 20.2401C16.38 20.2361 16.423 20.2361 16.466 20.2361C16.818 20.2243 17.0957 19.9312 17.0957 19.5746V17.3442V15.1179C17.0957 14.7613 16.818 14.4682 16.466 14.4563C16.419 14.4602 16.376 14.4563 16.3291 14.4563Z" fill="white"/>
</g>
<defs>
<clipPath id="clip0_1_477">
<rect width="162.75" height="31" fill="white"/>
</clipPath>
</defs>
</svg>
