<svg width="84" height="21" viewBox="0 0 84 21" fill="none" xmlns="http://www.w3.org/2000/svg">
<g id="Molotov 2">
<g id="strapi">
<path d="M80.8342 3.22846C81.1759 3.5718 81.5793 3.74346 82.0445 3.74346C82.5242 3.74346 82.9348 3.5718 83.2765 3.22846C83.6181 2.88513 83.7889 2.47972 83.7889 2.0122C83.7889 1.54469 83.6181 1.13562 83.2765 0.784984C82.9348 0.434348 82.5242 0.259033 82.0445 0.259033C81.5793 0.259033 81.1759 0.434348 80.8342 0.784984C80.4926 1.13562 80.3218 1.54469 80.3218 2.0122C80.3218 2.47972 80.4926 2.88513 80.8342 3.22846Z" fill="white"/>
<path d="M44.048 7.71105C44.048 7.74694 44.019 7.77604 43.9832 7.77604H41.584V12.3343C41.584 12.7141 41.6785 12.9917 41.8675 13.167C42.0565 13.3424 42.3327 13.441 42.6961 13.4629C43.0286 13.4829 43.434 13.4816 43.9125 13.4588L43.9248 13.4582L43.9469 13.4571L43.9797 13.4555C44.0169 13.4536 44.048 13.4832 44.048 13.5204V15.9578C44.048 15.9909 44.0232 16.0187 43.9903 16.0223C43.9744 16.0241 43.9583 16.0259 43.9464 16.0271C42.0668 16.2285 40.7378 16.0422 39.9595 15.4681C39.1672 14.8837 38.7711 13.8391 38.7711 12.3343V7.77604H36.9389C36.9031 7.77604 36.874 7.74694 36.874 7.71105V5.12362C36.874 5.08773 36.9031 5.05863 36.9389 5.05863H38.7711V3.24876C38.7711 3.19728 38.8014 3.15065 38.8484 3.12985L41.4929 1.96013C41.5358 1.94116 41.584 1.97262 41.584 2.01959V5.05863H43.9832C44.019 5.05863 44.048 5.08773 44.048 5.12362V7.71105Z" fill="white"/>
<path d="M49.1487 6.94314C49.4104 6.24187 49.8429 5.71592 50.4461 5.36528C50.9982 5.0444 51.6082 4.87034 52.2759 4.84312C52.3082 4.8418 52.3577 4.84083 52.3976 4.8402C52.4337 4.83963 52.4632 4.86883 52.4632 4.90498V7.87863C52.4632 7.94071 52.4093 7.9885 52.3476 7.98289C51.5364 7.90916 50.8081 8.08853 50.1627 8.52099C49.4867 8.97389 49.1487 9.72629 49.1487 10.7782V15.9508C49.1487 15.9867 49.1197 16.0158 49.0838 16.0158H46.4007C46.3648 16.0158 46.3358 15.9867 46.3358 15.9508V5.12347C46.3358 5.08758 46.3648 5.05848 46.4007 5.05848H49.0838C49.1197 5.05848 49.1487 5.08758 49.1487 5.12347V6.94314Z" fill="white"/>
<path fill-rule="evenodd" clip-rule="evenodd" d="M62.4494 5.0583C62.4135 5.0583 62.3845 5.0874 62.3845 5.12329V6.35126C61.5413 5.28474 60.3566 4.75149 58.8302 4.75149C57.3765 4.75149 56.1299 5.31031 55.0905 6.42796C54.0511 7.54561 53.5314 8.91526 53.5314 10.537C53.5314 12.1586 54.0511 13.5283 55.0905 14.6459C56.1299 15.7636 57.3765 16.3224 58.8302 16.3224C60.3566 16.3224 61.5413 15.7892 62.3845 14.7226V15.9506C62.3845 15.9865 62.4135 16.0156 62.4494 16.0156H65.1325C65.1684 16.0156 65.1974 15.9865 65.1974 15.9506V5.12329C65.1974 5.0874 65.1684 5.0583 65.1325 5.0583H62.4494ZM57.1945 12.7724C57.7615 13.3422 58.4811 13.6271 59.3533 13.6271C60.2255 13.6271 60.9487 13.3385 61.523 12.7614C62.0972 12.1843 62.3843 11.4429 62.3843 10.5371C62.3843 9.63128 62.0972 8.88985 61.523 8.31276C60.9487 7.73567 60.2255 7.44713 59.3533 7.44713C58.4811 7.44713 57.7615 7.73567 57.1945 8.31276C56.6276 8.88985 56.3441 9.63128 56.3441 10.5371C56.3441 11.4429 56.6276 12.188 57.1945 12.7724Z" fill="white"/>
<path fill-rule="evenodd" clip-rule="evenodd" d="M77.4148 6.42796C76.3754 5.31031 75.1216 4.75149 73.6534 4.75149C72.127 4.75149 70.9495 5.28474 70.1209 6.35126V5.12329C70.1209 5.0874 70.0918 5.0583 70.056 5.0583H67.3728C67.337 5.0583 67.3079 5.08739 67.3079 5.12329V20.3335C67.3079 20.3694 67.337 20.3985 67.3728 20.3985H70.056C70.0918 20.3985 70.1209 20.3694 70.1209 20.3335V14.7226C70.9495 15.7892 72.127 16.3224 73.6534 16.3224C75.1216 16.3224 76.3754 15.7636 77.4148 14.6459C78.4542 13.5283 78.9739 12.1586 78.9739 10.537C78.9739 8.91526 78.4542 7.54561 77.4148 6.42796ZM70.9711 12.7724C71.538 13.3422 72.2576 13.6271 73.1298 13.6271C74.002 13.6271 74.7253 13.3385 75.2995 12.7614C75.8737 12.1843 76.1608 11.4429 76.1608 10.5371C76.1608 9.63128 75.8737 8.88985 75.2995 8.31276C74.7253 7.73567 74.002 7.44713 73.1298 7.44713C72.2576 7.44713 71.538 7.73567 70.9711 8.31276C70.4041 8.88985 70.1206 9.63128 70.1206 10.5371C70.1206 11.4429 70.4041 12.188 70.9711 12.7724Z" fill="white"/>
<path d="M80.7141 16.0158C80.6782 16.0158 80.6492 15.9867 80.6492 15.9509V5.12353C80.6492 5.08763 80.6782 5.05854 80.7141 5.05854H83.3972C83.4331 5.05854 83.4621 5.08763 83.4621 5.12353V15.9509C83.4621 15.9867 83.4331 16.0158 83.3972 16.0158H80.7141Z" fill="white"/>
<path d="M30.503 8.88239C30.1178 8.69976 29.9251 8.46236 29.9251 8.17016C29.9251 7.89257 30.0451 7.67343 30.2849 7.51272C30.5248 7.35201 30.8264 7.27166 31.1899 7.27166C31.8868 7.27166 32.4132 7.54467 32.7692 8.0907C32.794 8.12879 32.8423 8.14421 32.8839 8.12575L35.2572 7.07053C35.2925 7.05482 35.3064 7.01188 35.2867 6.97855C35.2605 6.93424 35.2261 6.87647 35.2032 6.84032C34.7964 6.19765 34.2702 5.71889 33.6103 5.35413C32.8834 4.95236 32.0766 4.75148 31.1899 4.75148C30.0124 4.75148 29.0275 5.06193 28.2352 5.68285C27.4429 6.30377 27.0468 7.15478 27.0468 8.2359C27.0468 8.95179 27.2394 9.54713 27.6247 10.0219C28.0099 10.4968 28.4787 10.8437 29.0311 11.0629C29.5835 11.282 30.1359 11.4647 30.6883 11.6108C31.2408 11.7569 31.7096 11.9212 32.0948 12.1038C32.48 12.2865 32.6727 12.5239 32.6727 12.8161C32.6727 13.4443 32.1711 13.7584 31.1681 13.7584C30.2133 13.7584 29.5516 13.4038 29.1831 12.6945C29.1515 12.6336 29.079 12.6057 29.0164 12.6336L26.6498 13.6875C26.6164 13.7023 26.6018 13.7418 26.6177 13.7747C26.6273 13.7946 26.6374 13.8154 26.6447 13.8302C27.4718 15.4917 28.9796 16.3224 31.1681 16.3224C32.4183 16.3224 33.4613 16.0193 34.2972 15.4129C35.1331 14.8066 35.551 13.941 35.551 12.8161C35.551 12.071 35.3584 11.4501 34.9731 10.9533C34.5879 10.4566 34.1191 10.1023 33.5667 9.89046C33.0143 9.67862 32.4619 9.5033 31.9095 9.36451C31.357 9.22571 30.8882 9.06501 30.503 8.88239Z" fill="white"/>
</g>
<g id="Strapi Monogram">
<path id="Background" d="M0.405029 7.27382C0.405029 3.96702 0.405029 2.31362 1.43068 1.28632C2.45633 0.259033 4.10709 0.259033 7.4086 0.259033H13.6041C16.9056 0.259033 18.5563 0.259033 19.582 1.28632C20.6076 2.31362 20.6076 3.96702 20.6076 7.27381V13.4792C20.6076 16.786 20.6076 18.4394 19.582 19.4667C18.5563 20.494 16.9056 20.494 13.6041 20.494H7.4086C4.10709 20.494 2.45633 20.494 1.43068 19.4667C0.405029 18.4394 0.405029 16.786 0.405029 13.4792V7.27382Z" fill="#4945FF"/>
<g id="Monogram">
<path id="Subtract" fill-rule="evenodd" clip-rule="evenodd" d="M14.3448 6.39697H7.54327V9.87064H11.0113V13.3443H14.4795V6.53187C14.4795 6.45737 14.4192 6.39697 14.3448 6.39697Z" fill="white"/>
<rect id="Rectangle 1793" x="10.8767" y="9.87061" width="0.134684" height="0.1349" fill="white"/>
<path id="Rectangle 1280" d="M7.54327 9.87061H10.8767C10.9511 9.87061 11.0114 9.931 11.0114 10.0055V13.3443H7.67796C7.60357 13.3443 7.54327 13.2839 7.54327 13.2094V9.87061Z" fill="#9593FF"/>
<path id="Rectangle 1281" d="M11.0114 13.3442H14.4795L11.1264 16.7028C11.084 16.7453 11.0114 16.7152 11.0114 16.6551V13.3442Z" fill="#9593FF"/>
<path id="Rectangle 1544" d="M7.54324 9.87064H4.2377C4.17771 9.87064 4.14766 9.79799 4.19009 9.75549L7.54324 6.39697V9.87064Z" fill="#9593FF"/>
</g>
</g>
</g>
</svg>
