<svg width="160" height="54" viewBox="0 0 160 54" fill="none" xmlns="http://www.w3.org/2000/svg">
<path d="M7.95286 0.119923C4.51856 0.745638 1.71868 3.11992 0.602113 6.35992C0.0607472 7.92851 0.0861239 7.28564 0.0861239 20.7942C0.0861239 34.2857 0.0776648 34.0114 0.602113 36.1628C0.965847 37.6628 1.27882 38.5113 1.98936 39.9856C3.84185 43.8342 6.78554 46.8171 10.6174 48.7285C12.9266 49.8857 16.048 50.6571 18.3826 50.6571H18.8986L18.1204 50.1256C16.86 49.2427 16.0056 48.5313 14.9314 47.4428C11.4295 43.9028 9.28088 39.5656 8.57031 34.5856C8.36735 33.1542 8.36735 30.0856 8.5788 28.6714C9.16246 24.5828 10.7612 20.8114 13.2481 17.6571C14.4831 16.0971 16.4963 14.2199 18.1796 13.08C18.8563 12.6257 18.924 12.5999 19.4061 12.5999C20.8356 12.5999 23.238 13.0371 24.8705 13.5942C26.0463 13.9971 27.9834 14.9485 29.0492 15.6514C36.9836 20.9056 39.8596 31.2 35.7909 39.8142C34.8858 41.7171 33.7946 43.3114 32.3143 44.8628C30.7918 46.457 29.1253 47.6828 27.1121 48.6856C24.9467 49.7656 22.7304 50.3828 20.2351 50.5885L18.9409 50.6999L19.8967 51.2313C22.2653 52.5342 24.8367 53.3999 27.5351 53.8028C28.9054 53.9999 32.1367 53.9999 33.4394 53.8028C34.8266 53.5885 36.2138 53.2542 37.4319 52.8428C45.7385 50.0314 51.6428 42.4971 52.4549 33.6599C52.5817 32.2971 52.514 29.6142 52.3195 28.3714C51.9727 26.1085 51.3298 24.0342 50.2978 21.8999C48.4538 18.0942 45.6116 14.8885 42.0843 12.6428C41.1116 12.0256 39.0306 10.9885 37.9479 10.5856C36.8483 10.1742 34.8012 9.65134 33.5832 9.47136C32.2467 9.27419 29.8867 9.20561 28.5417 9.3342C25.4119 9.63421 22.1045 10.6885 19.5499 12.1971C19.2623 12.3771 19.017 12.5142 19.0001 12.5142C18.9832 12.5142 18.9493 11.5628 18.924 10.3885C18.8732 8.12561 18.7717 7.43135 18.3319 6.25707C17.2068 3.22278 14.7623 1.02849 11.6578 0.248492C10.7443 0.0256367 8.84949 -0.0429357 7.95286 0.119923Z" fill="url(#paint0_linear_1_466)"/>
<path d="M101.536 19.3204C100.436 19.6803 99.7846 20.6404 99.7931 21.8575C99.7931 22.9203 100.258 23.7003 101.164 24.1461C101.57 24.3518 101.756 24.386 102.323 24.386C103.43 24.386 104.175 23.9061 104.674 22.8861C105.088 22.0203 104.834 20.6746 104.115 19.9546C103.49 19.3204 102.373 19.0461 101.536 19.3204Z" fill="#F4F4F4"/>
<path d="M154.668 23.4048V27.8277L154.144 27.3391C151.682 25.0848 147.242 25.6162 144.932 28.4448C142.471 31.4705 142.471 36.2362 144.932 39.2619C147.259 42.1162 151.699 42.6305 154.186 40.3248L154.753 39.7934V40.6163V41.4391H156.741H158.728V30.2105V18.9819H156.699H154.668V23.4048ZM151.903 29.8248C152.663 29.9877 153.239 30.3134 153.763 30.8963C154.525 31.7363 154.837 32.5848 154.837 33.8534C154.829 34.7877 154.745 35.2248 154.398 35.9277C154.085 36.5791 153.324 37.3334 152.706 37.6248C151.192 38.3191 149.373 37.9848 148.299 36.8191C147.53 35.9705 147.225 35.1391 147.225 33.8534C147.225 32.5762 147.53 31.7363 148.282 30.9048C148.815 30.3305 149.399 29.9877 150.126 29.8248C150.811 29.6705 151.208 29.6705 151.903 29.8248Z" fill="#F4F4F4"/>
<path d="M67.9258 30.8794V41.7736H73.0434C76.1985 41.7736 78.491 41.7394 79.024 41.6794C80.2506 41.5422 81.3584 41.2423 82.2972 40.7794C83.7266 40.0765 84.7334 38.8422 85.1476 37.308C85.2494 36.9308 85.3004 36.4251 85.3004 35.688C85.3088 34.7708 85.2749 34.5222 85.106 33.9822C84.6824 32.6794 83.6086 31.4537 82.433 30.9222C82.1282 30.7851 81.8829 30.6565 81.8829 30.6308C81.8829 30.6051 82.1367 30.4594 82.4414 30.2965C84.2342 29.3536 85.1985 27.228 84.8437 24.9994C84.7079 24.1166 84.4796 23.508 84.0229 22.8137C83.5407 22.0679 82.949 21.5451 82.0519 21.0822C81.2064 20.6451 80.7667 20.4908 79.6327 20.2422C78.8373 20.0708 78.5079 20.0622 73.3648 20.028L67.9258 19.9937V30.8794ZM78.2626 23.988C79.4298 24.2365 80.0894 24.7251 80.3177 25.5137C80.7242 26.8937 80.1657 28.1193 78.9137 28.5736C78.3891 28.7708 78.2711 28.7794 75.3104 28.8136L72.2398 28.8394V26.3537V23.8594H74.972C77.0021 23.8594 77.8399 23.8937 78.2626 23.988ZM78.9646 32.8765C80.2336 33.2622 80.7744 33.8879 80.8508 35.0536C80.9271 36.2193 80.5715 36.9908 79.7769 37.4365C79.007 37.8565 78.491 37.9165 75.2257 37.9165H72.2398V35.2936V32.6708L75.3949 32.7137C77.8646 32.7393 78.6344 32.7737 78.9646 32.8765Z" fill="#F4F4F4"/>
<path d="M94.6257 26.3794C93.5341 26.6365 92.7133 27.108 92.0877 27.828L91.7074 28.2737V27.4765V26.688H89.7618H87.8163V34.2309V41.7737H89.8459H91.8678L91.8933 37.0766L91.9187 32.388L92.1556 31.8737C92.7727 30.5366 93.9738 29.9708 95.708 30.1937C96.1307 30.2537 96.6808 30.3652 96.9261 30.4509C97.2478 30.5623 97.3997 30.5794 97.4167 30.5108C97.4591 30.3652 97.9667 26.8337 97.9667 26.6794C97.9667 26.3623 95.6147 26.148 94.6257 26.3794Z" fill="#F4F4F4"/>
<path d="M112.582 26.5C111.905 26.6372 111.153 26.9372 110.501 27.3229C109.934 27.6657 108.902 28.6258 108.488 29.2C108.014 29.8515 107.524 30.9315 107.287 31.8314C107.092 32.5686 107.067 32.8429 107.059 34.0429C107.059 35.1829 107.083 35.5429 107.236 36.16C107.599 37.6086 108.149 38.6543 109.071 39.6401C110.476 41.1486 112.277 41.8943 114.24 41.7743C115.78 41.68 116.887 41.2429 117.86 40.3344L118.427 39.8115V40.54C118.427 41.4657 118.317 42.0572 118.004 42.7172C117.175 44.5172 114.824 45.2286 112.066 44.5086C111.245 44.2943 110.019 43.7715 109.545 43.4286L109.291 43.24L109.165 43.5315C109.105 43.6858 108.784 44.4315 108.454 45.1857L107.862 46.5572L108.048 46.7029C108.632 47.1743 110.306 47.8429 111.516 48.0915C116.456 49.12 120.448 47.5 121.819 43.9001C122.369 42.46 122.352 42.8458 122.378 34.4457L122.411 26.8H120.415H118.427V27.5886V28.3771L118.029 27.9914C116.651 26.6458 114.612 26.0886 112.582 26.5ZM115.982 30.28C117.742 30.8115 118.824 32.6972 118.537 34.7201C118.351 36.0572 117.623 37.1029 116.49 37.6686C115.864 37.9772 115.838 37.9858 114.882 37.9858C113.631 37.9858 113.157 37.8058 112.379 37.0686C111.77 36.4943 111.389 35.8258 111.228 35.0458C111.093 34.3515 111.17 33.1343 111.398 32.5257C111.787 31.4972 112.667 30.6315 113.631 30.3229C114.291 30.1086 115.348 30.0915 115.982 30.28Z" fill="#F4F4F4"/>
<path d="M130.941 26.0195C129.3 26.311 127.701 27.2625 126.703 28.531C124.309 31.5825 124.335 36.271 126.771 39.2624C129.097 42.1167 133.538 42.631 136.025 40.3253L136.591 39.7939V40.6167V41.4396H138.579H140.567V33.8968V26.3539H138.579H136.591V27.1681V27.9824L136.287 27.6395C135.805 27.0995 134.807 26.4738 134.029 26.2167C133.25 25.9682 131.761 25.8653 130.941 26.0195ZM133.724 29.8167C134.477 29.9796 134.917 30.2196 135.492 30.7767C136.304 31.5567 136.676 32.5253 136.676 33.8539C136.676 35.191 136.304 36.151 135.484 36.9396C134.9 37.5053 134.316 37.7967 133.487 37.9339C132.218 38.1482 130.966 37.7281 130.138 36.8195C129.368 35.971 129.063 35.1396 129.063 33.8539C129.063 32.5767 129.368 31.7368 130.121 30.9053C130.654 30.331 131.237 29.9882 131.964 29.8253C132.649 29.671 133.047 29.671 133.724 29.8167Z" fill="#F4F4F4"/>
<path d="M100.484 34.2309V41.7737H102.515H104.544V34.2309V26.688H102.515H100.484V34.2309Z" fill="#F4F4F4"/>
<defs>
<linearGradient id="paint0_linear_1_466" x1="0.0859379" y1="0.0302741" x2="33.031" y2="63.9891" gradientUnits="userSpaceOnUse">
<stop stop-color="#FF467C"/>
<stop offset="1" stop-color="#E82340"/>
</linearGradient>
</defs>
</svg>
