<svg width="140" height="37" viewBox="0 0 140 37" fill="none" xmlns="http://www.w3.org/2000/svg">
<g id="Group 362">
<path id="Vector" d="M44.8333 18.7823L40.2188 1.6792H44.9572L48.0825 14.2613H48.3506L52.3052 1.6792H56.6771L60.5609 14.2613H60.8542L63.8834 1.6792H68.45L63.8581 18.7798H57.8756L54.457 7.78564H54.3103L50.8665 18.7798H44.8359L44.8333 18.7823Z" fill="white"/>
<path id="Vector_2" d="M67.8164 18.7823L74.1175 1.6792H81.1747L87.4506 18.7798H82.7854L81.4175 14.992H73.799L72.431 18.7798H67.8164V18.7823ZM77.1695 5.6389L75.0936 11.404H80.1481L78.0722 5.6389H77.167H77.1695Z" fill="white"/>
<path id="Vector_3" d="M92.2804 18.7823V5.63638H86.1992L86.3712 1.6792H102.683L102.829 5.63638H96.7483V18.7798H92.2804V18.7823Z" fill="white"/>
<path id="Vector_4" d="M103.272 10.3042C103.272 5.29515 106.764 1.26465 113.04 1.26465C115.872 1.26465 118.069 2.21791 119.437 3.19393V7.51775H119.412C117.556 6.27117 115.725 5.19654 113.184 5.19654C111.497 5.19654 110.18 5.68455 109.227 6.63781C108.274 7.59107 107.811 8.78708 107.811 10.2789C107.811 11.7708 108.274 12.9187 109.202 13.8695C110.129 14.7974 111.449 15.2627 113.159 15.2627C115.697 15.2627 117.579 14.3575 119.409 12.9921H119.435V17.3639C118.825 17.7786 117.92 18.1958 116.772 18.6105C115.624 19.0024 114.281 19.1971 112.744 19.1971C106.273 19.1971 103.27 15.2399 103.27 10.3042H103.272Z" fill="white"/>
<path id="Vector_5" d="M122.051 18.7823V1.6792H126.519V8.03091H134.577V1.6792H139.07V18.7823H134.577V11.9653H126.519V18.7823H122.051Z" fill="white"/>
<path id="Vector_6" d="M40.6328 29.7147C40.6328 26.86 42.6228 24.5615 46.2007 24.5615C47.8139 24.5615 49.068 25.1052 49.8468 25.6614V28.1268H49.8317C48.7747 27.4163 47.7304 26.8043 46.2841 26.8043C45.3233 26.8043 44.5723 27.0825 44.0287 27.6261C43.485 28.1698 43.222 28.8525 43.222 29.7021C43.222 30.5517 43.4875 31.2065 44.016 31.7502C44.5445 32.2787 45.2955 32.5442 46.2715 32.5442C47.7178 32.5442 48.7899 32.0283 49.8342 31.2495H49.8494V33.7427C49.5004 33.9804 48.9871 34.2155 48.3322 34.4532C47.6773 34.6757 46.9137 34.787 46.0363 34.787C42.3472 34.787 40.6353 32.5315 40.6353 29.7198L40.6328 29.7147Z" fill="white"/>
<path id="Vector_7" d="M51.3359 34.5469V24.7993H59.6599L59.756 26.9587H53.8695V28.5188H58.5448V30.5669H53.8695V32.39H59.9381L59.8546 34.5494H51.3359V34.5469Z" fill="white"/>
<path id="Vector_8" d="M61.3008 34.5469V24.7993H66.7422C69.2885 24.7993 70.5274 26.0105 70.5274 28.2255C70.5274 29.7983 69.8321 30.8855 68.5375 31.3457L70.932 34.5494H67.9964L66.062 31.8337H63.8496V34.5494H61.3033L61.3008 34.5469ZM63.847 29.7426H66.5197C67.5766 29.7426 67.966 29.1307 67.966 28.3368C67.966 27.5428 67.5766 26.9587 66.5197 26.9587H63.847V29.7426Z" fill="white"/>
<path id="Vector_9" d="M74.537 34.5469V27.0548H71.0703L71.1689 24.7993H80.4664L80.5498 27.0548H77.0832V34.5469H74.537Z" fill="white"/>
<path id="Vector_10" d="M81.6797 34.5469V24.7993H84.2259V34.5469H81.6797Z" fill="white"/>
<path id="Vector_11" d="M86.1484 34.5469V24.7993H94.3738L94.4572 26.9713H88.6947V28.9487H93.5242V31.0499H88.6947V34.5443H86.1484V34.5469Z" fill="white"/>
<path id="Vector_12" d="M95.7227 34.5469V24.7993H98.2689V34.5469H95.7227Z" fill="white"/>
<path id="Vector_13" d="M99.6445 29.7147C99.6445 26.86 101.634 24.5615 105.212 24.5615C106.826 24.5615 108.08 25.1052 108.859 25.6614V28.1268H108.843C107.786 27.4163 106.742 26.8043 105.293 26.8043C104.332 26.8043 103.581 27.0825 103.038 27.6261C102.494 28.1698 102.231 28.8525 102.231 29.7021C102.231 30.5517 102.497 31.2065 103.025 31.7502C103.554 32.2787 104.305 32.5442 105.281 32.5442C106.727 32.5442 107.799 32.0283 108.843 31.2495H108.859V33.7427C108.51 33.9804 107.996 34.2155 107.341 34.4532C106.687 34.6757 105.923 34.787 105.046 34.787C101.356 34.787 99.6445 32.5315 99.6445 29.7198V29.7147Z" fill="white"/>
<path id="Vector_14" d="M109.641 34.5469L113.231 24.7993H117.254L120.829 34.5469H118.172L117.393 32.3875H113.049L112.27 34.5469H109.641V34.5469ZM114.971 27.0548L113.787 30.3419H116.667L115.484 27.0548H114.968H114.971Z" fill="white"/>
<path id="Vector_15" d="M123.338 34.5469V27.0548H119.871L119.967 24.7993H129.265L129.348 27.0548H125.881V34.5469H123.335H123.338Z" fill="white"/>
<path id="Vector_16" d="M130.445 34.5469V24.7993H138.769L138.868 26.9587H132.981V28.5188H137.657V30.5669H132.981V32.39H139.05L138.967 34.5494H130.448L130.445 34.5469Z" fill="white"/>
<g id="Group">
<path id="Vector_17" d="M17.0685 9.11279C16.6235 9.11279 16.181 9.14566 15.7461 9.20888V27.2046C16.181 27.2678 16.6235 27.3006 17.0685 27.3006C19.4985 27.3006 21.7817 26.355 23.4986 24.6381C25.2155 22.9212 26.1612 20.6379 26.1612 18.208C26.1612 15.778 25.2155 13.4948 23.4986 11.7779C21.7817 10.061 19.4985 9.11532 17.0685 9.11532V9.11279Z" fill="white"/>
<path id="Vector_18" d="M16.9564 0C4.4553 0 0 5.44902 0 18.2055C0 30.9621 4.4553 36.4111 16.9564 36.4111C29.4576 36.4111 34.1354 30.9621 34.1354 18.2055C34.1354 5.44902 29.4601 0 16.9564 0ZM12.534 26.5599H10.5112C10.3772 26.5599 10.2482 26.5118 10.1445 26.4259C7.72977 24.3954 6.32137 21.4117 6.32137 18.2055C6.32137 14.9993 7.69943 12.0763 10.0712 10.0484C10.1749 9.95995 10.3038 9.91191 10.4404 9.91191H12.534V26.5599ZM24.666 25.8038C22.6356 27.8343 19.9376 28.9519 17.0677 28.9519C16.1271 28.9519 15.1991 28.8305 14.3015 28.5928C14.1776 28.5599 14.0916 28.4487 14.0916 28.3223V8.09135C14.0916 7.96493 14.1776 7.85367 14.3015 7.8208C15.1966 7.58311 16.1271 7.46174 17.0677 7.46174C20.8883 7.46174 24.403 9.4416 26.4436 12.9133C26.886 13.6668 27.2223 14.4785 27.4423 15.323C28.4563 19.222 27.369 23.1059 24.6685 25.8064L24.666 25.8038Z" fill="white"/>
</g>
</g>
</svg>
