<svg width="161" height="29" viewBox="0 0 161 29" fill="none" xmlns="http://www.w3.org/2000/svg">
<g id="svgexport-1 1" clip-path="url(#clip0_1_519)">
<path id="Vector" fill-rule="evenodd" clip-rule="evenodd" d="M19.6717 2.57662C20.4796 1.03918 22.0669 0 23.9094 0C26.5456 0 28.6857 2.14955 28.6857 4.79735V24.0152C28.6857 26.663 26.5456 28.8125 23.9094 28.8125C22.0811 28.8125 20.4938 27.7734 19.6859 26.2502L19.6009 26.0936C18.6088 24.186 16.6247 22.8763 14.3428 22.8763C12.0468 22.8763 10.0626 24.186 9.08473 26.0936L8.99969 26.2502C8.20602 27.7734 6.6045 28.8125 4.77622 28.8125C2.14009 28.8125 0 26.663 0 24.0152V4.79735C0 2.14955 2.14009 0 4.77622 0C6.61867 0 8.22018 1.03918 9.02803 2.57662L9.09889 2.73321C10.0768 4.64076 12.061 5.95042 14.3428 5.95042C16.6387 5.95042 18.623 4.64076 19.6009 2.73321C19.6009 2.73321 19.6435 2.63356 19.6717 2.57662ZM9.56659 14.4063C9.56659 17.0541 11.7067 19.2037 14.3428 19.2037C16.979 19.2037 19.119 17.0541 19.119 14.4063C19.119 11.7585 16.979 9.60896 14.3428 9.60896C11.7067 9.60896 9.56659 11.7585 9.56659 14.4063Z" fill="#FF5656"/>
<path id="Vector_2" d="M60.6365 5.17871V22.7859H56.6094V15.3418H49.5975V22.7859H45.5703V5.17871H49.5975V12.5382H56.6094V5.17871H60.6365Z" fill="white"/>
<path id="Vector_3" d="M68.488 8.32069V12.4294H73.9129V15.4505H68.488V19.6439H75.571V22.7859H64.4609V5.17871H75.571V8.32069H68.488Z" fill="white"/>
<path id="Vector_4" d="M86.7808 16.091V22.7859H82.7774V16.091L76.5234 5.17871H80.0531C80.4005 5.17871 80.673 5.2633 80.8704 5.43248C81.0757 5.59361 81.2455 5.80308 81.3797 6.06088L83.8197 11.1847C84.025 11.5875 84.2105 11.9662 84.3764 12.3207C84.5422 12.6671 84.6883 13.0094 84.8146 13.3478C84.933 13.0015 85.0674 12.655 85.2173 12.3086C85.3753 11.9541 85.5568 11.5794 85.7622 11.1847L88.1784 6.06088C88.2337 5.95615 88.3009 5.85142 88.3798 5.74669C88.4588 5.64195 88.5496 5.5493 88.6523 5.46874C88.7628 5.38012 88.8852 5.31163 89.0194 5.2633C89.1615 5.2069 89.3155 5.17871 89.4814 5.17871H93.0347L86.7808 16.091Z" fill="white"/>
<path id="Vector_5" d="M107.259 8.41736H102.403V22.7859H98.3992V8.41736H93.543V5.17871H107.259V8.41736Z" fill="white"/>
<path id="Vector_6" d="M113.792 8.32069V12.4294H119.218V15.4505H113.792V19.6439H120.876V22.7859H109.766V5.17871H120.876V8.32069H113.792Z" fill="white"/>
<path id="Vector_7" d="M132.938 16.0547L131.338 11.2331C131.22 10.9269 131.094 10.5684 130.96 10.1575C130.826 9.7386 130.691 9.28745 130.557 8.80406C130.438 9.2955 130.312 9.75069 130.178 10.1696C130.044 10.5886 129.917 10.9511 129.799 11.2572L128.212 16.0547H132.938ZM139.299 22.7859H136.195C135.848 22.7859 135.567 22.7053 135.354 22.5441C135.14 22.375 134.979 22.1615 134.868 21.9037L133.85 18.8342H127.288L126.27 21.9037C126.183 22.1292 126.025 22.3347 125.795 22.52C125.575 22.6972 125.298 22.7859 124.967 22.7859H121.84L128.52 5.17871H132.619L139.299 22.7859Z" fill="white"/>
<path id="Vector_8" d="M160.538 5.17871V22.7859H157.008V12.6591C157.008 12.4254 157.012 12.1716 157.019 11.8977C157.036 11.6238 157.06 11.3459 157.091 11.0638L152.507 20.1152C152.365 20.3972 152.171 20.6106 151.927 20.7556C151.69 20.9006 151.417 20.9731 151.11 20.9731H150.565C150.256 20.9731 149.981 20.9006 149.735 20.7556C149.499 20.6106 149.31 20.3972 149.167 20.1152L144.584 11.0397C144.606 11.3297 144.627 11.6158 144.643 11.8977C144.658 12.1716 144.666 12.4254 144.666 12.6591V22.7859H141.137V5.17871H144.192C144.366 5.17871 144.516 5.18274 144.643 5.1908C144.776 5.19886 144.895 5.22302 144.998 5.2633C145.1 5.30359 145.192 5.36804 145.27 5.45666C145.357 5.53721 145.44 5.65403 145.519 5.80711L149.961 14.7375C150.118 15.0437 150.269 15.362 150.41 15.6922C150.561 16.0225 150.703 16.3609 150.837 16.7073C150.971 16.3528 151.11 16.0065 151.251 15.6681C151.402 15.3297 151.559 15.0074 151.726 14.7013L156.156 5.80711C156.234 5.65403 156.313 5.53721 156.392 5.45666C156.479 5.36804 156.574 5.30359 156.677 5.2633C156.779 5.22302 156.893 5.19886 157.019 5.1908C157.154 5.18274 157.308 5.17871 157.481 5.17871H160.538Z" fill="white"/>
</g>
<defs>
<clipPath id="clip0_1_519">
<rect width="160.536" height="29" fill="white"/>
</clipPath>
</defs>
</svg>
