<svg width="172" height="47" viewBox="0 0 172 47" fill="none" xmlns="http://www.w3.org/2000/svg">
<g id="header-appaloosa-logo-1 2" clip-path="url(#clip0_1_530)">
<g id="Clip path group">
<mask id="mask0_1_530" style="mask-type:luminance" maskUnits="userSpaceOnUse" x="0" y="-3" width="172" height="50">
<g id="b">
<path id="Vector" d="M0 -2.26318H172V46.0175H0V-2.26318Z" fill="white"/>
</g>
</mask>
<g mask="url(#mask0_1_530)">
<g id="Group">
<path id="Vector_2" fill-rule="evenodd" clip-rule="evenodd" d="M46.2551 31.9259C42.7734 31.9259 39.8672 29.4124 39.8672 24.8995C39.8672 20.3866 42.7734 17.8731 46.2551 17.8731C48.4132 17.8731 49.8519 18.7871 50.6863 20.1581H50.7438V18.3015H54.2543V31.4975H50.7438V29.6409H50.6863C49.8519 31.0119 48.4132 31.9259 46.2551 31.9259ZM47.1471 28.6126C49.2764 28.6126 50.7438 27.1273 50.7438 24.8995C50.7438 22.6716 49.2764 21.1863 47.1471 21.1863C45.0178 21.1863 43.5503 22.6716 43.5503 24.8995C43.5503 27.1273 45.0178 28.6126 47.1471 28.6126ZM57.3044 37.21V18.3015H60.8149V20.1581H60.8725C61.7069 18.7871 63.1456 17.8731 65.3036 17.8731C68.7854 17.8731 71.6916 20.3866 71.6916 24.8995C71.6916 29.4124 68.7854 31.9259 65.3036 31.9259C63.1456 31.9259 61.7069 31.0119 60.8725 29.6409H60.8149V37.21H57.3044ZM64.4116 28.6126C66.5409 28.6126 68.0083 27.1273 68.0083 24.8995C68.0083 22.6716 66.5409 21.1863 64.4116 21.1863C62.2823 21.1863 60.8148 22.6716 60.8148 24.8995C60.8148 27.1273 62.2823 28.6126 64.4116 28.6126ZM73.9935 37.21V18.3015H77.5042V20.1581H77.5615C78.3959 18.7871 79.8345 17.8731 81.9928 17.8731C85.4743 17.8731 88.3809 20.3866 88.3809 24.8995C88.3809 29.4124 85.4743 31.9259 81.9928 31.9259C79.8345 31.9259 78.3959 31.0119 77.5615 29.6409H77.5042V37.21H73.9935ZM81.1003 28.6126C83.23 28.6126 84.6973 27.1273 84.6973 24.8995C84.6973 22.6716 83.23 21.1863 81.1003 21.1863C78.9715 21.1863 77.5042 22.6716 77.5042 24.8995C77.5042 27.1273 78.9715 28.6126 81.1003 28.6126ZM96.265 31.9259C92.7828 31.9259 89.8769 29.4124 89.8769 24.8995C89.8769 20.3866 92.7828 17.8731 96.265 17.8731C98.4225 17.8731 99.8612 18.7871 100.696 20.1581H100.754V18.3015H104.264V31.4975H100.754V29.6409H100.696C99.8612 31.0119 98.4225 31.9259 96.265 31.9259ZM97.1567 28.6126C99.2863 28.6126 100.754 27.1273 100.754 24.8995C100.754 22.6716 99.2863 21.1863 97.1567 21.1863C95.0271 21.1863 93.5598 22.6716 93.5598 24.8995C93.5598 27.1273 95.0271 28.6126 97.1567 28.6126ZM110.911 11.5036H107.372V31.4974H110.911V11.5036ZM120.666 17.8731C124.895 17.8731 128.031 20.7579 128.031 24.8995C128.031 29.0411 124.895 31.9259 120.666 31.9259C116.436 31.9259 113.299 29.0411 113.299 24.8995C113.299 20.7579 116.436 17.8731 120.666 17.8731ZM120.666 21.1863C118.507 21.1863 116.925 22.643 116.925 24.8995C116.925 27.1559 118.507 28.6126 120.666 28.6126C122.823 28.6126 124.377 27.1559 124.377 24.8995C124.377 22.643 122.823 21.1863 120.666 21.1863ZM136.865 17.8731C141.095 17.8731 144.231 20.7579 144.231 24.8995C144.231 29.0411 141.095 31.9259 136.865 31.9259C132.635 31.9259 129.499 29.0411 129.499 24.8995C129.499 20.7579 132.635 17.8731 136.865 17.8731ZM136.865 21.1863C134.707 21.1863 133.124 22.643 133.124 24.8995C133.124 27.1559 134.707 28.6126 136.865 28.6126C139.024 28.6126 140.577 27.1559 140.577 24.8995C140.577 22.643 139.024 21.1863 136.865 21.1863ZM150.907 31.9259C154.216 31.9259 156.403 30.612 156.403 27.6986C156.403 25.7278 155.338 24.6139 153.468 23.8427L151.079 22.8144C150.159 22.4145 149.814 22.1289 149.814 21.6148C149.814 21.1293 150.13 20.8151 151.166 20.8151C152.375 20.8151 153.698 21.2149 154.906 21.7291L156.086 18.7871C154.532 18.2158 152.892 17.8731 151.368 17.8731C148.029 17.8731 146.217 19.3013 146.217 21.8719C146.217 23.5856 147.109 24.8995 149.209 25.8135L151.598 26.8418C152.375 27.2131 152.749 27.4701 152.749 27.9842C152.749 28.6412 152.202 28.9268 151.108 28.9268C149.497 28.9268 147.972 28.327 146.648 27.5558L145.21 30.5263C146.965 31.4975 149.065 31.9259 150.907 31.9259ZM163.999 31.9259C160.518 31.9259 157.612 29.4124 157.612 24.8995C157.612 20.3866 160.518 17.8731 163.999 17.8731C166.157 17.8731 167.596 18.7871 168.43 20.1581H168.488V18.3015H171.999V31.4975H168.488V29.6409H168.43C167.596 31.0119 166.157 31.9259 163.999 31.9259ZM164.891 28.6126C167.02 28.6126 168.488 27.1273 168.488 24.8995C168.488 22.6716 167.02 21.1863 164.891 21.1863C162.762 21.1863 161.295 22.6716 161.295 24.8995C161.295 27.1273 162.762 28.6126 164.891 28.6126Z" fill="white"/>
<path id="Vector_3" d="M15.5251 39.2353C24.0994 39.2353 31.0502 32.3356 31.0502 23.8244C31.0502 15.3132 24.0994 8.41353 15.5251 8.41353C6.95083 8.41353 0 15.3132 0 23.8244C0 32.3356 6.95083 39.2353 15.5251 39.2353Z" fill="#EA6D39"/>
<path id="Vector_4" d="M15.5251 39.2353C24.0994 39.2353 31.0502 32.3356 31.0502 23.8244C31.0502 15.3132 24.0994 8.41353 15.5251 8.41353C6.95083 8.41353 0 15.3132 0 23.8244C0 32.3356 6.95083 39.2353 15.5251 39.2353Z" fill="url(#paint0_linear_1_530)" fill-opacity="0.3"/>
<g id="Group_2">
<path id="Vector_5" fill-rule="evenodd" clip-rule="evenodd" d="M26.6922 25.428C26.6086 25.364 17.8398 28.3585 8.21875 20.2104C8.21875 20.2104 18.6016 16.5539 26.6922 25.428Z" fill="#A22B30"/>
<path id="Vector_6" fill-rule="evenodd" clip-rule="evenodd" d="M26.7107 25.4098C26.6271 25.3458 17.8418 28.3566 8.21875 20.2105C8.24636 20.1817 18.5512 19.3769 26.7107 25.4098Z" fill="#8E3127"/>
<path id="Vector_7" fill-rule="evenodd" clip-rule="evenodd" d="M9.63281 21.612L19.0033 10.0084L20.2687 9.75459L10.1733 21.7806L9.63281 21.612Z" fill="#00A2B6"/>
<path id="Vector_8" fill-rule="evenodd" clip-rule="evenodd" d="M15.543 15.3619L19.8554 14.6726L26.2326 7.39424L20.3314 9.66067L15.543 15.3619Z" fill="#6AC1B9"/>
<path id="Vector_9" fill-rule="evenodd" clip-rule="evenodd" d="M14.6796 15.3808L14.6016 11.0872L20.6758 3.33662L19.4609 9.54269L14.6796 15.3808Z" fill="#6AC1B9"/>
<path id="Vector_10" fill-rule="evenodd" clip-rule="evenodd" d="M12.1133 23.1026L24.9354 7.12487L26.238 6.91182L12.6806 23.2988L12.1133 23.1026Z" fill="#00A2B6"/>
<path id="Vector_11" fill-rule="evenodd" clip-rule="evenodd" d="M21.3047 12.7343L26.1143 7.03908L31.9208 4.75557L25.5437 12.034L21.3047 12.7343Z" fill="#EFA684"/>
<path id="Vector_12" fill-rule="evenodd" clip-rule="evenodd" d="M20.5972 12.5301L20.5312 8.20539L26.6056 0.454788L25.3475 6.63344L20.5972 12.5301Z" fill="#EFA684"/>
<path id="Vector_13" fill-rule="evenodd" clip-rule="evenodd" d="M14.8984 24.4033L24.269 12.7997L25.5345 12.5461L15.4387 24.5721L14.8984 24.4033Z" fill="#00A2B6"/>
<path id="Vector_14" fill-rule="evenodd" clip-rule="evenodd" d="M20.5977 18.3877L24.8794 17.7073L31.2565 10.4289L25.3876 12.6922L20.5977 18.3877Z" fill="#9CCA7C"/>
<path id="Vector_15" fill-rule="evenodd" clip-rule="evenodd" d="M19.934 18.1923L19.8672 13.8787L25.9415 6.12813L24.7027 12.317L19.934 18.1923Z" fill="#9CCA7C"/>
<path id="Vector_16" fill-rule="evenodd" clip-rule="evenodd" d="M21.8828 25.9775L32.058 15.0905L33.3695 14.9646L22.6017 25.9809L21.8828 25.9775Z" fill="#00A2B6"/>
<path id="Vector_17" fill-rule="evenodd" clip-rule="evenodd" d="M28.0312 20.3723L32.2167 19.8368L39.2305 12.9841L33.2263 14.9347L28.0312 20.3723Z" fill="#F9D69C"/>
<path id="Vector_18" fill-rule="evenodd" clip-rule="evenodd" d="M27.4414 20.2305L27.6166 15.8393L33.9402 8.71016L32.3893 14.9781L27.4414 20.2305Z" fill="#F9D69C"/>
<path id="Vector_19" fill-rule="evenodd" clip-rule="evenodd" d="M18.3403 25.6988L17.5312 25.5575L28.2948 14.3142L28.3156 15.7194L18.3403 25.6988Z" fill="#00A2B6"/>
<path id="Vector_20" fill-rule="evenodd" clip-rule="evenodd" d="M22.8711 20.1143L23.0572 15.7333L29.7072 8.40401L27.9919 14.6957L22.8711 20.1143Z" fill="#FAC922"/>
<path id="Vector_21" fill-rule="evenodd" clip-rule="evenodd" d="M23.2109 20.7841L27.5382 20.3821L34.7858 13.3215L28.6873 15.1742L23.2109 20.7841Z" fill="#FAC922"/>
<path id="Vector_22" fill-rule="evenodd" clip-rule="evenodd" d="M11.0043 38.5715C6.52117 37.2187 2.89732 33.9068 1.14453 29.64L8.36469 20.0664C17.6442 27.7105 26.7114 25.4099 26.7114 25.4099L11.0043 38.5715Z" fill="#B76141"/>
<path id="Vector_23" fill-rule="evenodd" clip-rule="evenodd" d="M11.0571 38.5876C6.56663 37.2504 2.9316 33.9496 1.16406 29.6899L2.68846 27.7045L26.4649 25.6535L11.0571 38.5876Z" fill="#AB462C"/>
<path id="Vector_24" fill-rule="evenodd" clip-rule="evenodd" d="M4.55874 34.7327C3.29919 33.4849 2.25446 32.0235 1.48438 30.4079C4.40509 31.0227 12.3387 32.0746 23.513 28.0832L17.2208 33.5761C17.2208 33.5761 12.6827 36.0454 4.55874 34.7327Z" fill="#8E3127"/>
<path id="Vector_25" fill-rule="evenodd" clip-rule="evenodd" d="M17.7333 32.8198C17.2587 33.2908 16.4785 33.2799 15.9904 32.7954C15.5025 32.3111 15.4915 31.5367 15.9661 31.0656C16.4405 30.5947 17.2207 30.6056 17.7085 31.0899C18.1967 31.5745 18.2076 32.3489 17.7333 32.8198Z" fill="#AB462C"/>
</g>
</g>
</g>
</g>
</g>
<defs>
<linearGradient id="paint0_linear_1_530" x1="9.70518" y1="1.58541" x2="-8.41654" y2="25.4215" gradientUnits="userSpaceOnUse">
<stop stop-color="white"/>
<stop offset="1" stop-opacity="0.5"/>
</linearGradient>
<clipPath id="clip0_1_530">
<rect width="172" height="46.0175" fill="white"/>
</clipPath>
</defs>
</svg>
