<svg width="159" height="44" viewBox="0 0 159 44" fill="none" xmlns="http://www.w3.org/2000/svg">
<path d="M40.9123 15.665C42.3563 15.8763 42.955 16.5454 42.955 17.9189V30.809C42.955 32.1825 42.2507 32.746 40.9123 33.063V35H50.527C55.7746 35 59.2613 32.6756 59.2613 29.1889C59.2613 26.618 57.3595 24.7514 54.4011 24.1174C56.9721 23.4835 58.5921 21.7578 58.5921 19.4686C58.5921 16.0524 55.1055 13.7279 49.9635 13.7279H40.9123V15.665ZM49.3648 16.1228C51.6188 16.2637 53.1684 17.4963 53.1684 19.3981C53.1684 21.4056 51.8653 22.7087 48.9774 22.92L48.2378 22.9904V16.0524L49.3648 16.1228ZM48.8365 25.3501C51.971 25.5966 53.4854 26.8997 53.4854 29.048C53.4854 31.0555 51.8653 32.3234 49.2944 32.4643L48.2378 32.5347V25.3149L48.8365 25.3501ZM75.8781 29.4355V24.7514C75.8781 20.3138 72.7085 18.5529 68.9753 18.5529C66.6861 18.5529 64.7138 19.0812 62.812 19.9264V24.1174H65.1012C65.6647 22.0043 66.8622 21.0182 68.3414 21.0182C69.7149 21.0182 70.6306 21.9339 70.6306 23.5892V26.0192H68.6583C64.2912 26.0192 61.3681 28.0619 61.3681 31.0907C61.3681 33.556 63.3051 35.2817 66.193 35.2817C68.2357 35.2817 69.8558 34.4013 71.1236 33.0278L72.5676 35.2465H73.6242L77.8152 33.6617V31.7247C76.4769 31.4429 75.8781 30.8442 75.8781 29.4355ZM69.5036 32.0416C67.9187 32.0416 66.827 31.2668 66.827 30.1046C66.827 28.8367 68.0244 27.9915 69.7501 27.9915H70.6306V31.8655C70.4193 31.9712 69.9614 32.0416 69.5036 32.0416ZM85.0644 35.2465C89.7133 35.2465 92.6012 33.1686 92.6012 29.7876C92.6012 25.0683 84.5009 25.174 84.5009 22.6735C84.5009 21.7226 85.1701 20.983 86.4028 20.983C87.8115 20.983 88.9033 21.793 89.2202 23.6244H91.5095V19.6094C90.1007 18.9755 88.6567 18.5529 86.4028 18.5529C82.2117 18.5529 79.676 20.5251 79.676 23.7652C79.676 28.6606 87.6354 28.5198 87.6354 31.0203C87.6354 32.1121 86.8606 32.8164 85.4871 32.8164C83.4796 32.8164 82.4935 31.7247 82.1061 29.682H79.8169V34.0843C80.9439 34.683 82.5639 35.2465 85.0644 35.2465ZM105.411 31.8303C104.707 32.0064 104.038 32.1473 103.439 32.1473C101.819 32.1473 100.727 31.0555 100.727 29.4707V21.4056H105.2V18.7994H100.727V15.1367H98.2621C97.6986 17.1794 96.0433 18.6233 94.0358 19.3277V21.4056H95.4798V30.1398C95.4798 33.1686 97.5225 35.2465 100.657 35.2465C102.559 35.2465 104.707 34.4717 106.01 33.6265L105.411 31.8303ZM108.657 14.1153C108.657 15.8058 110.031 17.1089 111.792 17.1089C113.518 17.1089 114.856 15.8058 114.856 14.1153C114.856 12.4953 113.518 11.1922 111.792 11.1922C110.031 11.1922 108.657 12.4953 108.657 14.1153ZM116.546 35V33.063C115.208 32.746 114.609 32.1825 114.609 30.809V18.7994H112.391L107.425 20.5956V22.5326C108.763 22.8143 109.362 23.3778 109.362 24.7514V30.7033C109.362 32.1121 108.833 32.7108 107.425 33.063V35H116.546ZM126.395 35.2465C131.502 35.2465 135.235 31.9008 135.235 26.8997C135.235 21.5817 131.079 18.5529 126.641 18.5529C122.063 18.5529 118.013 21.793 118.013 27.1462C118.013 32.0416 121.429 35.2465 126.395 35.2465ZM126.677 32.6051C124.775 32.6051 123.718 30.2807 123.718 26.7588C123.718 23.1313 124.845 21.2295 126.571 21.2295C128.543 21.2295 129.459 23.6244 129.459 27.0406C129.459 30.7385 128.367 32.6051 126.677 32.6051ZM146.156 35V33.063C144.959 32.8517 144.325 32.2529 144.325 30.7385V22.5678C145.065 22.3565 145.875 22.2156 146.755 22.2156C149.115 22.2156 149.89 23.2722 149.89 25.984V30.7385C149.89 32.2529 149.291 32.8517 148.058 33.063V35H157.074V33.063C155.736 32.746 155.137 32.1825 155.137 30.809V25.0683C155.137 20.8773 153.095 18.5529 149.854 18.5529C147.741 18.5529 145.875 19.5742 144.149 20.983V18.7994H141.895L137.14 20.5956V22.5326C138.479 22.8143 139.077 23.3778 139.077 24.7514V30.809C139.077 32.1825 138.479 32.746 137.14 33.063V35H146.156Z" fill="white"/>
<path d="M0 28.8636C0 34.5048 11.2825 41.7444 16.9238 42.9667V0.704315L11.2825 3.47793V11.9868L5.64125 14.7604V6.20454L0 8.97816V28.8636Z" fill="white"/>
<path d="M5.64062 21.3889H13.3503V25.2437H5.64062V21.3889Z" fill="#141B45"/>
<path d="M20.4961 21.3889H28.2058V25.2438H20.4961V21.3889Z" fill="white"/>
<path d="M22.5664 8.85577L28.2077 6.06369V14.9957L22.5664 12.1637V8.85577Z" fill="white"/>
</svg>
